/* XPM */
static char *_5a7f848fe12453af9cec3cc23a58524[] = {
/* columns rows colors chars-per-pixel */
"32 32 166 2 ",
"   c black",
".  c #030200",
"X  c #040303",
"o  c #060503",
"O  c #060606",
"+  c #060707",
"@  c #080603",
"#  c #0F0905",
"$  c #0B0B0B",
"%  c #0E0E0E",
"&  c #120E09",
"*  c #150E09",
"=  c #1B150A",
"-  c #030811",
";  c #050D1A",
":  c #060E1C",
">  c #131211",
",  c gray9",
"<  c gray10",
"1  c #1C1D1D",
"2  c #1E1F1F",
"3  c #2A2011",
"4  c #252019",
"5  c #3D2918",
"6  c #3F311A",
"7  c #3D301D",
"8  c #13233E",
"9  c #232425",
"0  c #242526",
"q  c #282725",
"w  c #2A2824",
"e  c #2C2A27",
"r  c #2A2B2C",
"t  c #2B2C2D",
"y  c #2E2D2D",
"u  c #322D23",
"i  c #302F2F",
"p  c #3B3120",
"a  c #36322D",
"s  c #39352E",
"d  c #2E2F30",
"f  c gray20",
"g  c #333435",
"h  c gray21",
"j  c #393734",
"k  c #3B3834",
"l  c #3B3A37",
"z  c #353738",
"x  c #383A3B",
"c  c #3B3C38",
"v  c #3D3C3C",
"b  c #44331B",
"n  c #45351A",
"m  c #43351E",
"M  c #48361E",
"N  c #48371F",
"B  c #49381F",
"V  c #4B391E",
"C  c #4B381F",
"Z  c #4D3921",
"A  c #453A2B",
"S  c #4C3D28",
"D  c #553D21",
"F  c #553E25",
"G  c #543E26",
"H  c #533D2B",
"J  c #413C35",
"K  c #443E37",
"L  c #564027",
"P  c #594128",
"I  c #5E4328",
"U  c #45413A",
"Y  c #43403C",
"T  c #49433B",
"R  c #50463D",
"E  c #614225",
"W  c #624426",
"Q  c #604429",
"!  c #66462A",
"~  c #67472B",
"^  c #65472D",
"/  c #694728",
"(  c #6B472A",
")  c #6F4C2E",
"_  c #734E2E",
"`  c #774F2F",
"'  c #6B4C31",
"]  c #6F4F32",
"[  c #765133",
"{  c #725035",
"}  c #765337",
"|  c #795334",
" . c #19335A",
".. c #1A335B",
"X. c #3B3E40",
"o. c #1B3661",
"O. c #444340",
"+. c #454546",
"@. c #4B4541",
"#. c #4A4744",
"$. c #4A4845",
"%. c #474849",
"&. c #484849",
"*. c #4A4B4C",
"=. c #514B42",
"-. c #574E45",
";. c #594D44",
":. c #524C48",
">. c #524F4B",
",. c #544F4B",
"<. c #59534B",
"1. c #525253",
"2. c #555350",
"3. c #5B5550",
"4. c #5C5854",
"5. c #5D5A56",
"6. c #585859",
"7. c #595A5B",
"8. c #5E5B58",
"9. c #5E5E5F",
"0. c #645242",
"q. c #62564C",
"w. c #65584C",
"e. c #655A51",
"r. c #6C5D53",
"t. c #625E5A",
"y. c #65605C",
"u. c #69605A",
"i. c #756150",
"p. c #74655A",
"a. c #7D6B5E",
"s. c #5F6163",
"d. c #6B6763",
"f. c #6F6761",
"g. c #6C6864",
"h. c #6D6D6C",
"j. c #726963",
"k. c #7E6E61",
"l. c #726D69",
"z. c #75716E",
"x. c #7F736A",
"c. c #6F7376",
"v. c #707172",
"b. c #7A7571",
"n. c #825532",
"m. c #805737",
"M. c #855936",
"N. c #825739",
"B. c #835938",
"V. c #845939",
"C. c #825A3C",
"Z. c #845D3F",
"A. c #885A38",
"S. c #8A5E3C",
"D. c #8E5E3C",
"F. c #8D613E",
"G. c #90613E",
"H. c #93633E",
"J. c #866144",
"K. c #82644D",
"L. c #906340",
"P. c #956643",
"I. c #916645",
"U. c #966744",
"Y. c #976845",
"T. c #8A6A50",
/* pixels */
"O O O O O O O O O O O O O O O O O O O O O O O O O O O O O O O O ",
"                                                                ",
"                                                                ",
"                                                                ",
"                                                                ",
"                                                                ",
"                                                                ",
"                                                                ",
"                                                                ",
"                                                                ",
"                                                                ",
"                                                                ",
"                                                                ",
"                                  X                             ",
"                                                                ",
"                  < i y y f f f h v 1                           ",
"                x 6.+.+.%.&.*.1.6.9.9.9                         ",
"              # r.z.g.8.4.2.:.$.O.l l u o                       ",
"          o   5 M.Z.Z.V.{ } ] P G M M n =                       ",
"              H J.G.P.G.m.D.| W ( E G S 4                       ",
"            % 6.v.x.k.p.r.r.q.;.;.R c x w                       ",
"            & 0.u.j.y.4.2.:.#.@.K c j a p @                     ",
"            * ` F.S.F.B.` } _ D L G V Z n o                     ",
"            * } L.Y.Y.F.V.V.} Q ~ ~ Z M 5 o                     ",
"            = _ G.U.P.F.B.N.} I ! ! B Z 6 o                     ",
"            > i.T.I.P.F.| B.| Q ! ! Z A s O                     ",
"            & s.v.b.j.f.t.t.3.,.:.@.Y z w                       ",
"              A w.e.e.<.;.=.T T K l s 7 7 @                     ",
"              5 n.n.V.[ / _ _ D E D n B 3                       ",
"              , a.K.C.C.' } ] G ~ S m m $                       ",
"                X.h.l.g.t.3.>.$.K k e %                 - : : ; ",
"O O O O + + + + O 1 g d r r 0 0 1 1 % O O O O O O O O o 8 o....."
};
