/* XPM */
static char *aa7813023dd147d5ec1f2b54a32df46c[] = {
/* columns rows colors chars-per-pixel */
"64 64 246 2 ",
"   c #5C3A3B",
".  c #5D2E30",
"X  c #633C3D",
"o  c #6B3C3D",
"O  c #693736",
"+  c #733C3C",
"@  c #7B3D3D",
"#  c #773937",
"$  c #70352D",
"%  c #5A413D",
"&  c #6C433D",
"*  c #64443C",
"=  c #73423C",
"-  c #7B433D",
";  c #7B4637",
":  c #76462F",
">  c #643C43",
",  c #6B3D43",
"<  c #693742",
"1  c #743E43",
"2  c #793D45",
"3  c #5F3F40",
"4  c #3D5A5C",
"5  c #5E4445",
"6  c #5B5B58",
"7  c #4E5055",
"8  c #644343",
"9  c #6B4344",
"0  c #6B4B45",
"q  c #654549",
"w  c #6C454B",
"e  c #654B4B",
"r  c #6C4B4C",
"t  c #624A45",
"y  c #744344",
"u  c #7C4443",
"i  c #744B45",
"p  c #7C4A45",
"a  c #74444A",
"s  c #7B454A",
"d  c #734B4C",
"f  c #7B4C4C",
"g  c #6C524D",
"h  c #7C524C",
"j  c #74524C",
"k  c #6E4C53",
"l  c #684851",
"z  c #734D53",
"x  c #7B4D53",
"c  c #754955",
"v  c #6C5353",
"b  c #6A5958",
"n  c #745353",
"m  c #7C5354",
"M  c #745459",
"N  c #7B555B",
"B  c #745A5C",
"V  c #7C5B5C",
"C  c #785A54",
"Z  c #68635D",
"A  c #7C625C",
"S  c #75625C",
"D  c #515665",
"F  c #695A63",
"G  c #7A5C64",
"H  c #6A4A61",
"J  c #696965",
"K  c #736362",
"L  c #7B6463",
"P  c #7C6A65",
"I  c #786A6A",
"U  c #69736B",
"Y  c #7C726C",
"T  c #75756D",
"R  c #7B6771",
"E  c #6C7976",
"W  c #797775",
"Q  c #536B6A",
"!  c #843B37",
"~  c #89342F",
"^  c #83433A",
"/  c #87463B",
"(  c #8C483B",
")  c #853E42",
"_  c #844444",
"`  c #8A4444",
"'  c #844B45",
"]  c #8B4C44",
"[  c #844549",
"{  c #834C4B",
"}  c #8B4C4B",
"|  c #8C464A",
" . c #944948",
".. c #82524C",
"X. c #8C534C",
"o. c #895549",
"O. c #93534C",
"+. c #965344",
"@. c #834C52",
"#. c #8B4C53",
"$. c #874E5A",
"%. c #845353",
"&. c #8B5454",
"*. c #835A55",
"=. c #8C5A55",
"-. c #83555B",
";. c #835C5C",
":. c #8B5A5B",
">. c #8B565A",
",. c #935353",
"<. c #935B5B",
"1. c #975858",
"2. c #934D51",
"3. c #87635C",
"4. c #96665C",
"5. c #91705F",
"6. c #835C62",
"7. c #8A5C64",
"8. c #885A66",
"9. c #935D65",
"0. c #836363",
"q. c #8B6465",
"w. c #846A64",
"e. c #84646A",
"r. c #8C636B",
"t. c #836C6B",
"y. c #8B6B6C",
"u. c #8A6964",
"i. c #946363",
"p. c #92656C",
"a. c #936C6B",
"s. c #9A6968",
"d. c #84726C",
"f. c #8C736D",
"g. c #84766A",
"h. c #95756B",
"j. c #846C73",
"k. c #8C6C72",
"l. c #886977",
"z. c #936C73",
"x. c #9A6974",
"c. c #837473",
"v. c #8C7374",
"b. c #847B75",
"n. c #8C7B75",
"m. c #837B7B",
"M. c #8C7B7B",
"N. c #8A737B",
"B. c #937473",
"V. c #9B7373",
"C. c #937B75",
"Z. c #93747B",
"A. c #947C7C",
"S. c #9B7979",
"D. c #A1676D",
"F. c #A3747C",
"G. c #A47C7C",
"H. c #A77677",
"J. c #A66F71",
"K. c #A14945",
"L. c #7B857A",
"P. c #68837C",
"I. c #8C827B",
"U. c #87847A",
"Y. c #93837C",
"T. c #98847B",
"R. c #85806A",
"E. c #A7837B",
"W. c #B1867F",
"Q. c #8A7B83",
"!. c #937D82",
"~. c #997A83",
"^. c #A57A83",
"/. c #B27A85",
"(. c #7A8885",
"). c #778E8C",
"_. c #8A8785",
"`. c #938382",
"'. c #9C8384",
"]. c #9C8B84",
"[. c #948C8A",
"{. c #9B8C8B",
"}. c #968788",
"|. c #88938A",
" X c #9C928C",
".X c #99958A",
"XX c #998994",
"oX c #9D9492",
"OX c #9C9C94",
"+X c #969995",
"@X c #889398",
"#X c #A38483",
"$X c #A28B84",
"%X c #A38C8B",
"&X c #AB8A8C",
"*X c #A98686",
"=X c #B48887",
"-X c #AB938D",
";X c #A4948A",
":X c #A98D92",
">X c #A49493",
",X c #AB9594",
"<X c #A39B94",
"1X c #AB9C94",
"2X c #A39C99",
"3X c #AB9B9B",
"4X c #A6959A",
"5X c #B49897",
"6X c #B58D8E",
"7X c #9CA39D",
"8X c #98A398",
"9X c #8CA699",
"0X c #A4A39C",
"qX c #ABA39C",
"wX c #A7A69A",
"eX c #B3A29D",
"rX c #B6A79D",
"tX c #AA9FA3",
"yX c #BB9DA2",
"uX c #99ACAA",
"iX c #ACA4A3",
"pX c #ACABA5",
"aX c #A7A9A6",
"sX c #B3A4A4",
"dX c #B2ABA4",
"fX c #B3ADAA",
"gX c #BBACAC",
"hX c #B9A7A7",
"jX c #A8B2A9",
"kX c #B3B3AC",
"lX c #B9B4A9",
"zX c #AAB6B2",
"xX c #B6B7B4",
"cX c #B7ADB1",
"vX c #C29194",
"bX c #C2A9A5",
"nX c #C3B3AD",
"mX c #C5ACB2",
"MX c #C6B8B8",
"NX c #D1AFB0",
"BX c #B7C2BA",
"VX c #C9C5BB",
"CX c #C5BBC5",
"ZX c #BFC4C7",
"AX c #C7C9C6",
"SX c #D4CCCC",
/* pixels */
"B.A.%XCXW Q.c.R c.t.d.Y d.b.Y 2XaXm.[.I.I.[.oX[. XI.{.!.eX$Xu.s.5.5.s.4.5.5.h.h.s.;Xm.Z.r.A.Y e.M.Z.v.B.t.m.sXv.I L 0.e.L C.A.B.",
"p 0 N #Xq k w r w > w r k M q k.Z.k x x d w w , q q M q B.q.p <.=.o.4.=.o.o.:.i.<.#Xk d a r r c r , 2 c w n 6X8 d d a y & 9 y = ",
"h i m #Xz r 9 i r > c x N 8.q k.!.k w z n r q k w M x w S.h.; X.w 9 d d 9 y d x f :Xb > , 0 > > w , a a d N yX9 & y = = i 9 i p ",
"f.A t.,Xc.t.P P K R I t.t.v.K !.~.e.6.0.L M M m v B K b ]. Xh.h.t.e.t.t.L t.c.N.d.gX}.N.B.'.g.v.b.j.k.N.N.`.gXY A 3.A C g.B L w.",
";X'.`.4X{.3X3X4XiXSX3X3X5XeXeXhXkX0X2XqX7XwXpX<XeXeXeX{.`.T.$X=X6X;XdXqX].-X&X-X%X,X%X;X*X5X%XnXsX3X5X5X4XqXsX%X,X,X%X%XnX[.{.%X",
"l q q q l M M k B ,Xz m d d m w d m x m d f.S.*.h j N n 8 t f u u h &X0.9 o o & 9 O < 9 O u O k.n w w d w d X w a a a n #XB k z ",
"k z z d M m z w K 5Xd m p f f a j m m n t h.E.i & X 9 d d m } _ | o.bXu.y u # = = _ ' p = ] o S.m 1 u @.p x s { f f f N 5XM k d ",
"e r r t r r g r b {.r d i f 9 0 i y y h 9 C.=Xy 0 0 8 r g m =.1.,.m nXP d o.p i & ' + i i @ , qX3.9 y f d 9 m y i d i j 1Xb v M ",
"fXiXjXjXgXhXpXcXxXBXxXwXlXlXwXxXBXcXhXhXfXkXxXhXiXdXaXaXxXxXfXsXaXjXcXhXtX2XiXiXtXxXjXsX3XsX,XxXiXhX2XpXeXfXzXpXpXkXfXfXcXpXfXcX",
"z d C.1X9.:.a.q.z.z.9.<.4.s.4.6X[.v.y.y.t.K e.6.p.q.t.e.:Xk.G N N >.9.8.6.-.x $.$.'.q.$.m #.$.N N $.-.y.9.6.#X7.V ;.m V V M V N ",
"e   w.$X= & * : & = = u = = i W.e.w 9 a d   9 d @.a f o *X:.d :.M $.$.z d M w $.m -Xq.{ f s #.8 9 + d n c z ,Xd x a , y a y a 1 ",
"8 < ;.h.X.o.h 1.....h *.h ..C =Xy.q , < i X & 0 r 0 g t %XB e M z s m r 9 q 5 x d '.6.1 9 X u , y y 9 0 , N %X> 5 t % 8 8 * 8   ",
"[.&XhX5X=XS.T.E.-X-X$X].;X-X].nXeX'.{.{.'.'.%X'.oX<X{.>XMXdXiXcXjX:XiX0X3X0XzX4XaXxXfX4XxXfX,XdX0X,X0XjX XpXxX X{.3XoX.X%X&X%X].",
"aX[.<X[.]._.BX;XT.T.].`.qXeXI.$X%X'.gXgX%X,X5X1XhXMXN.Z.k.Z.Z.%XmXD.V.V.H.#XxX~.k.j.l.r.tXyXx.^.S.^.^.hXF.V.f.J.^.bX1XA.G.G.G.$X",
"M.< < 9 , k eXw O 1 s , V.i.O @ = * y.Z.  w 8 8 L ,X3 x 9 y & V OX# + * ! d kXk X   > > `.'.d z M %.z -X=.y = 2.s H.3.O + ! @ h ",
"n.a y m x v sXz a d r X S.3.& ' _ $ h.*X1 @.@.s P 5X  d s 9 & i.;X# ' ^ ~ 2 VXq O 8 , O n.'.d p x @.y =XX.^ O.! _ =Xs.O `  ./ o.",
"~.G G G R R hXQ.V G V 0.#X#X0.t.6.B.gX,Xe.q.;.A ].mXB.k.r.k.t.;XCXQ.Q.!.Z.'.CXoXN.M.I M.2X4Xj.W k.Z.N.yXB.Z.8.q.6.5X5XA A 3.C i.",
"wXpXkXdXwXiXgXsXrXrXeX1XlXdX;XgXdX2XjXwX2XeXqX.X[.kX2XdXVXwX].<X$X;X-X;X-X$X1XOX,XnX2X;X,X5X>X3XOXOXOXkX2XiXxXdXiXxXlXwXrXrX1XlX",
"g A E.H.,.1.| 1.2.1.1.,.1.1.>.vX&.u h f { u ' ' { o.f m =Xm y y ) _ # ! ! ) @ + o z.0.r X , > > q 9 w q 8 j G.-.M r d z m m d m ",
"n n G.W.{ 1.,.,.1.1.1.1.1.1.9.vXi.>.&.:.s.&.:.&.<.,.3.q.vX7.{ s s p i %.' { ..h %.*Xy.r > w l 5 w d z w z 6.-X0.k r a c , w l k ",
"8.G S.G.-.>.i.>.:.;.&.3.=.;.6.&Xu.-.%.h -.d V -.*.*.V V *X0.*.%.m N C j m m m V 6.#Xy.n v z e e k k z B M 6.'.L A L 6.6.c M G V ",
"tXhXsXeXhX<XqX2X0XqXY.;X X;X8XkXwX1X1X1X.XwX0X0XrXqXwXwXlXdXrXrXbX1XhXqX>X,XeX,X;XlXdXkXgXsXOXxXiX<X2XiX0XiXlXqXwX<XoX2XpX2XqXqX",
"{ :.&.&.<.&.=.>.S.#Xh &.' ' %.{ X.{ } &.*.*Xk.r j m m %.o.%.' ' ] _ H.=X' | O.]  .] ]  . .2.| vXp.m f { %.%.f @.>.@.n m G.>.&.,.",
"o.^ X.1.] ] O.] u.G.u X./ ( O.@ u ( +.X.- *Xa.d i f &.#.}  .( ( ( ( 4.4.- O./ ( o./ / ' ' ' + W.i.p f = { } - } s @.f d G.&.O. .",
"= p - u [ _ _ = 4.H.- ! ! ! ! ; ^ ; ; / / E.*.# 9 d + { p = / ^ ` / 4.4._ ( ^ ( u ( ` ^ ' { ! *X;.) ` & @ | O s _ # u f x.%.{ [ ",
"<X<X>XsX4XXX4XoX8XzXOX XoXtXiXaX+X+X8XOX+XBXjX8XoX<X{.>XiXwXrXeX1X<XkXfXqXqX;X<X.X<X%X5X.XqX1XkXjX>X>X7X4X{.|.[.|._.|.+XjX7X7XiX",
"9.r.k.:XR l.e.l.R l.l.R R Q.R Q.:XF./.S.z.F.S.^.^.G.x.r.&X^.a.V.F.B.S.S.S.F.V.y.^.fXx.H.V.J.F.x.s.H.E.V.s.^.sXt.9.9.8.r.p.;.8.9.",
"y y z *X5 e q q > > w 8 5 q 3 L e.a #.h h [ } ..o.&.&.i E.h.h 3.<.<.=.>.1.4.s.o.s.xX{  .+. .o.+. . .O.O. .h -Xs u u y - + + - @ ",
"- - f #X8 5 X X l > , > q     P B.s 2.*.*.} ,.%.o.&.&.i E.h.%.:.=.*.=.:.$.<.i.*.9.lX.. .]  .]  . .( ]  . .{ -Xs u - + + + - = u ",
"n.v.Q.aXW W W W E (.E W U.m._.aXoXZ.~.!.M.N.'.N.'.'.!.m.4X{.v.Z.M.c._.[.W M.U._.XXBX{.-XY.S.!.Z.Y.C.`.I.Z.oXxXm.v.N.t.R A.M.c.m.",
"Z.N.N.~.Q.l.Q.N.XXcXQ.z.x.9.e.Z.Z.j.z.a.y.`.>XN.9.p.8.8.Z.r.x.x.D.9.G.:XG z.r.z.e.z.x.F.z.z.x.%X:X7.r.v.p.8.l.6.e.e.P L >XXXQ._.",
"b J b b F b 6 7 6 tXc 1 s [ { i _ u { _ u w.f.X 0 0 * j r 0 o.{ 1.{ h.*X0 *.s { i [ p _ C m 2 [.I.y 0 t & { 9 w & i 9 > B.G v b ",
"k M b b b F D D Q sXc f i ' { _ y { 2 [ h C S.X 9 y _ @ & %.{ j ) #.V.E.& { 2 u d + [ y 9 ' 1 *XZ.O 1 9 1 y * 2 d < z > Z.V v e ",
"I.U.XX[.M.!._.Q.).CXZ.c.c.y.j.Y W b.y.d.Y I.2Xc.P e.k.v.|.'.6XT.^.A.7XkX[.<XoX>XXX4X}.`.[.{.[.zXxX`.Q.[.}._.E M.Z.v.A.N.4X`.b.U.",
"T.M.kXOXZ.V.B.Y.Q.:XB.f.S.B.Y.8XS.B.C.V.a.^.*XH.V.S.B.`.xXv.H.V.H.V.G.*XG.*X*XG.4XmX'.^.6X:X:X6X:X5X5X%X^.gXtX~.T.%X'.A.'.`.n.Y.",
"f v qXy.# ` @ i ) ! ^ ; ( ! u T.o./ ' ] / ] / ( ( +.' 3.NX= ~ / ; - # ! ! ^ ; $ 7.T.w 2.| { f } - | [ p u V.y.x &.:.m x z d d h ",
"z e iXZ.y ` # ; ! ! ; ; # ! - h.X./ ^ ' / / ' ; ( ( X.;.hXy ~ ( $ ^ ! ! ! # ^ $ q.E.j >.[ =...2.} ,.f h ' H.v.%.:.*.-.8.m m ;.j ",
"b.T aXtXv.Z.s.a.t.B.f.P j.k.S.4XF.y.B.y.y.i.S.C.f.t.:XiXzXM.q.B h.i.s.J.s.h.u.s.B.-XP r.8.z.e.p.k.p.j.Y 8.5X4Xj.w.f.I l.Y K Y P ",
"fXaXCXCXaXAXMXyXxXmXmXxXAXsXhXgXgX2XAXpX3X3XdXdXAXMXhXcXjXfXSXSXrXrXbXhXrXVXnXbXhXMXsXxXAXfXsXiXsX{.xXBXtXmXxXhXhXAXtXuXuXuXuXAX",
"6 F H H 7 (._.l k a 2 e.3X  o 1 d % ;XC y # @ + !.:X1 s v d :.MX# - - : = W.D. . . .] S.bX1 _ y a 1 #Xy.O 2 9 o F XX7 D D 7 7 @X",
"6 F N F 7 ).Q.c $.-.e v.-XX o h f 9 -XV , 1 u + n.E.1 x b 9 9.nX= # - / O =XH.( ( +.( H.NXk a _ s 5 %XB.X g r u G [.6 D D 4 4 @X",
"J F 7 D D (.Q.c c z e v.&Xm y o , e %XM , 1 y . Y.!.z k 6 v k.fX& + @ s o G.H.4.O.' o.*XNX6.x @.@.z T.q.X   8 d F E 4 D Q D 4 @X",
"jXzXuXuXuXzXcXiXaX8XaXxXMXgXdXkXwX+XBXjXpXiXdXqXxXxXsXiXzXaXhXAXqX3X2XqXOXlXMXnXzXkXwXdXVXxXxXnXbXfXlXsX>X+X+X_.5XiXoX+XaX+XuXCX",
"9.8.:X~.$.$.7.7.q.V 0.;.m 7.e.4Xz.V L G e.N ;.q.8.8.p.k.iXl.8.8.0.;.V ;.V V 6.-.XX%Xu.=.%.7.9.:.i.;.:.>.7.>X!.M >.:.6.8.G 8.8.$.",
"s   ].t., 2 a * s 1 2 1 1 d q >Xf a a 9 d w y , 8 8 9 B kXl , 8 , 9 w 9 a , a o :XZ.- +.` _ [ - u p ' | 1 5XY.9 r , 8 M > z a d ",
"u X $Xe.. , , X O + 1 + + X 5 {., , 1 y > 9 w x 0 r w V xXe 2 t < , t X , a 9 X #Xz.. ^ @ - ' ; ' i _ _ O -XB.X y 2 + 9 . 1 2 y ",
"m.W 2X[.I c.c.b.W _.W g.g.Y W 0XU.W Y m.U E U W T K j.m.uXT R J W T (.E U m.W W 7X7Xb.M.Y W W W I.m.n.C.b.jX0X!._.%XY.U.L.I._.L.",
"Q.N.M.!.{.[.}.M.5X,XY.B.V.V.^.z.Q.v.S.S.A.tX}.l.m.I k.l.W I l.T N.c.|._.R ~.Z.}.Q.Q.!.'.!.XXXXCXS.*X/.^.~.W './.'.F.S.4XsXk.Z.Q.",
"* o i 8 1 s r o Y B.O  .^ # / ; : : # ; $ T.K k d m G k n C j N x c b.Z $.#.V j h C d _ { %.p qX^ ^ ^ : ^ ^ ; : ^ ; # X.].  r 9 ",
"r a r q a 9 e , Q.B.= ] _ ' ' ' ' _ ( s ) $XW d L B F M V 0.N c G b T 6 q.q.P P *.A 3.4.*.:.-.qX . .' '  .| ' } ] p | J.*X  , 1 ",
"I e.B Z A Z J G Q.`.0.w.3.f.V q.8.G 7.P 7.[.b.L Z J K I G M M G I R _.I P K Z A i.L A 3.M A ;.<XV >.A K 0.q.3.a.u.d.n t.[.J j.K ",
"oXI.g.R.T.W +X[.U.I.U.R.L._.T b._.W U.9XI.|.L.I.U.+XXX_.c.S b _. Xa.V.w.t.`. XV.s.P A 3..XI.A U.g.C.U.|.n.n.b.h.I.wXb.I U T M.U.",
"Z.s / ^ K.^ ].L s i p & C e.q f l , c I.[ ' ~  .O A v e m d t oXu.# ) x f C.*X@ s i y o -Xu.= i u _ 3.n.i u ' ^ x %XG , e w o C ",
";X..o.^ +.p ;XI j i d 0 t.Y.l k l M m I.{ ,./ +.) J.7.x #.{ c hXa._ 1.7.' V.*X@  .@.[ # =Xi.2.,.] _ 4.V._ } =.| x 6X7., M >.s m ",
"V.@.&.u  .@.Z.e.a [ @.a r.~.z z e k b L.d x = j y a.P v f x k aX{.G n b k j.].G r v $.x `.L m d V ;.P M.m N v v q |.W 5 5 e w 6 ",
"E J U Q J U E (.U L.U.U @X9X(.)._.Q.XXuXQ.R c.|._.8X@X|.m.!.W uXaX2XOX7XQ._.8X|._.(.Q._.9X|.`.U.W `.U.+X}.}.W _.W ).P.E E W m.).",
"v g S A.v L G k B G V B b L v R I.-.C C *.;.b 3.*.3.m M B.h...X.p f *.' &.O.O.1.] T.h.} ] ] X.X.X.} } } &.h C.B x n r C n z v g ",
"m r M ~.B V N V B M M V B G B l.b.j 9 & o * % X 0 r 8 q 0.u...} O.O.^ ' ( ] X.o.{ T.f.@.{ h { %.f p ..' m d Z.b w r 8 e r k M g ",
"r e v j.v k k N G G c N N N k l.n.m d d y 9 5 q d 9 o 9 6.i.' } ] ' - &.o./ / p | T.z.$.&.%.$.N m p h f f z y.b , k 9 9 c , w , ",
"e I I.oX[.}.t.S Z J Z J I T I _.8X XwX0X;XOX8XoXOX;X.X[.0XwX;X;X2XOX7X.X.XY.[.[.C.[.M.j.n.C.n._.Y.I.Y.T.T.Y.<XU.W n.d.W _.T U J ",
"Y n.g.g.g.h.R.T.t.C.y.u.e.a.y.C.Y a.B.B.y.'. Xj.u.y.p.u.v.B.q.i.j.Y ,XR e.7.7.9.<.;.-.%.3.>.i.}.s.4.4.4.4.4.s.4.h.s.s.h.{.Y I d.",
"*.C h =.3.3.4.3.g.T.3.m i d & * t y 0 t j Z.Y.e 8 9 0 w 0 r 8 d r d 5X*.>.| #.| { d %.o.h ' :.oX3.3.4.,.O.=.1.o.<.o.o.3.M.6 6 S ",
"w.;.*.3.A *.3.3.u.V.;.o.f ' f i j { s y { S.'.a d y s s i d y s f u 6X..[ ) | [ ' s #.{ i ! #.}.:.1.,.=.o.,.X.X.o.} ] *.A.b v ;.",
"Y.T. XT.T.E.$XC.|.oXn.C.B.h.n.C.w.a.h.g.w.Y.[.v j j v n g b v C F J dX[.{.[.[._.].`.%XY.U.E.~.uXY.C.T.R.h.T.h.h.g.g.h.I.aX(.m.!."
};
