/* XPM */
static char *result[] = {
/* columns rows colors chars-per-pixel */
"32 32 111 2 ",
"   c #676666",
".  c #696666",
"X  c #6B6B6B",
"o  c #716E6C",
"O  c #73706F",
"+  c #6C6F71",
"@  c #6D7173",
"#  c #6B7479",
"$  c #69797B",
"%  c #747474",
"&  c #747779",
"*  c #757A7B",
"=  c #7D7D7D",
"-  c #807D7D",
";  c #757E83",
":  c #7D7F81",
">  c #738184",
",  c #7E8183",
"<  c #7E878A",
"1  c #74888E",
"2  c #7C8A8C",
"3  c #76BBDF",
"4  c #5DDDE5",
"5  c #76C4EC",
"6  c #7BC5EB",
"7  c #63DBE2",
"8  c #63DEE9",
"9  c #77C9F3",
"0  c #7CCBF4",
"q  c #75CDFA",
"w  c #7ACEFA",
"e  c #75D2FA",
"r  c #7ED1FD",
"t  c #5DE5EC",
"y  c #56E9F2",
"u  c #5CEAF3",
"i  c #5FECF8",
"p  c #64E2EC",
"a  c #6AE1E9",
"s  c #67E6F0",
"d  c #6BE7F0",
"f  c #63E8F2",
"g  c #6BEBF5",
"h  c #64EEF9",
"j  c #6AECF8",
"k  c #77ECF5",
"l  c #70F0F8",
"z  c #818283",
"x  c #848788",
"c  c #82898D",
"v  c #8D8C8C",
"b  c #908D8D",
"n  c #818C92",
"m  c #8D8F91",
"M  c #908F90",
"N  c #8D9293",
"B  c #8D969A",
"V  c #879899",
"C  c #8A999A",
"Z  c #919395",
"A  c #91979A",
"S  c #94999B",
"D  c #84C9ED",
"F  c #8ACAEC",
"G  c #93CCEC",
"H  c #9ACEEB",
"J  c #84CCF3",
"K  c #8ACEF4",
"L  c #91CFF2",
"P  c #8FD1F5",
"I  c #83D3FC",
"U  c #8CD5FD",
"Y  c #8FD9FF",
"T  c #95D2F4",
"R  c #9CD5F4",
"E  c #92D6FB",
"W  c #94D9FE",
"Q  c #9BDAFD",
"!  c #B6CEE0",
"~  c #A3D2EE",
"^  c #AFD7EF",
"/  c #B9D2E6",
"(  c #B3D7EE",
")  c #BDD7EB",
"_  c #BDDAEE",
"`  c #A3D7F5",
"'  c #ABD7F0",
"]  c #A7D8F5",
"[  c #AAD9F5",
"{  c #A3DDFE",
"}  c #ABDEFD",
"|  c #B4DCF6",
" . c #BDDDF3",
".. c #B7DFFA",
"X. c #A7E0FF",
"o. c #ADE1FF",
"O. c #B3E2FE",
"+. c #BCE4FE",
"@. c #C3DBED",
"#. c #C1DCF1",
"$. c #C4E1F5",
"%. c #C4E6FD",
"&. c #C9E4F8",
"*. c #C5EAFF",
"=. c #CCEBFF",
"-. c #E4E3E3",
";. c #EBEAEA",
":. c #EEEFF0",
">. c #F2F2F2",
",. c #F7F8F8",
"<. c #FDFEFE",
/* pixels */
"*.%.*.+.+.+.O.O.} O.} X.{ { { { Q Q W W W Y U I I I r r r r q q ",
"%.%. . ...| | | | [ [ ] ` ] R R T T T T P P K P J J J 0 9 9 r q ",
"*.$.N z Z Z Z A Z Z Z Z Z Z A Z = * N B Z Z Z Z @ X , , z 2 0 r ",
"%.+.c & v v v v N N v b v v v v % % v v v v m v @ + , < = z 0 r ",
"+...&   % & % & 5 9 ; % % % % % v v % % z z - x _ +.w 5 x , J I ",
"+.O.& . % % % & 5 9 * o % % * = N N % % = - - x @.$.0 5 , , J I ",
"O...A v z = z - , < X X = z ) $.f t < = % % % % = * & * % = K U ",
"O.O.S v z z - - = = X X = z ) +.s t < = % % & % % % % % % ; J U ",
"..} S v m b % % % % O % @ % & = * * % % x b v v v v m v b N P W ",
"} } A v b b * % % % = = = = % % % % % % Z S Z Z m v v v v N P Y ",
"X.] , % , - , = = z ;.,.$._ = O = , X O :.,.&._ : % % % X @ K W ",
"} } , O , - - z , x >.<.=.%., @ = , . O >.<.=.+.: % % % . + L W ",
"{ ] B v - z -.>.@.) U I I I 8 7 < = = , J U j a N v v v v m T Q ",
"{ { S b - z >.<.=.*.w q 9 9 i u < = = , 5 q i t V b b Z v Z R Q ",
"{ { c - , - z x , , > > > ; ; > % % X X > > > > % % % & , x R Q ",
"Q Q c - , , % o O O O O % % % o % % X X O O % % % % % % = z R { ",
"Q Q  .@.6 5 $ . v b * % = z = z -.>.@./ Z v v v v v v v v V ` X.",
"E Q %.%.I q #   v M % % = - - x >.<.=.%.S M M M M m M b b Z ` X.",
"E E n , > ; % % % % % % % * /  .k g g g p 7 > % & % & = v Z ' X.",
"Q E * o O % % % % & % % O * _ *.f y u u u t > O % % % % v Z ' X.",
"E K c = v v % & 3 6 V v v v , , $ $ > > V C v v v v = = , x [ O.",
"U E c - b m % % 5 e N b N b % O . . O % v b b Z b N - z = z [ O.",
"U U c = - z - , > > z z - z , = v v v v z z )  .a 7 N v v Z o.O.",
"I K x - , , - - O O = = z = - = b M N M z z $.*.h u C N b Z ( O.",
"I I ; % % % % % % O % % % * % = / $.:.>.@._ I r e e p a * = ( +.",
"I J ; % % % & % % % % % % % % *  .=.<.<.=.*.0 e 0 e i t $ = O.+.",
"I J B v & % ! #.a 4 2 - = = % % ; z a l j d 1 * 2 2 2 2 v N +.+.",
"r w B M & & _ =.g u 2 = , = % % % % t u u t * O = = - - b Z _ %.",
"w w c - - = , , > > % % % % % % = = 2 2 C C v v - = % % % = +.*.",
"w w 2 - z z % % O % & % % % % % , , - , b b N N z z & % O * #.*.",
"w q 0 6 D D D D F F G L G G H H ~ ~ ~ ~ ' ' ^ | ( ( ( ( _ _ *.&.",
"w e r I I I U U Y Y W W Q Q X.Q X.X.o.o.o.O.O.O.+.+.*.*.*.=.%.*."
};
