/* XPM */
static char *c2372d146ff140249599e7ae1f11fe8b[] = {
/* columns rows colors chars-per-pixel */
"32 32 232 2 ",
"   c #11750F",
".  c #3C5A3E",
"X  c #186C2C",
"o  c #097926",
"O  c #16732A",
"+  c #177835",
"@  c #166E33",
"#  c #2A6935",
"$  c #227A35",
"%  c #24682F",
"&  c #4C6C38",
"*  c #55753A",
"=  c #427631",
"-  c #3F5F54",
";  c #3F6B57",
":  c #3A6B51",
">  c #4B5B57",
",  c #555D5B",
"<  c #575B56",
"1  c #49524D",
"2  c #645D5B",
"3  c #456A4A",
"4  c #55684D",
"5  c #497E49",
"6  c #587545",
"7  c #4C6B54",
"8  c #486B57",
"9  c #5E625B",
"0  c #576958",
"q  c #4C745C",
"w  c #487657",
"e  c #557459",
"r  c #5A7757",
"t  c #657E4D",
"y  c #656459",
"u  c #73665D",
"i  c #67735C",
"p  c #5A5D65",
"a  c #5A5F75",
"s  c #645D69",
"d  c #5C6C62",
"f  c #5D6D6C",
"g  c #586565",
"h  c #4A7262",
"j  c #5C7964",
"k  c #5A766B",
"l  c #587565",
"z  c #5E6675",
"x  c #5E7674",
"c  c #466C61",
"v  c #6C6262",
"b  c #646A64",
"n  c #6A6A65",
"m  c #63646B",
"M  c #6C646C",
"N  c #646C6C",
"B  c #6B6B6C",
"V  c #646465",
"C  c #736966",
"Z  c #726869",
"A  c #6B746D",
"S  c #687869",
"D  c #73736C",
"F  c #7C736D",
"G  c #7A7A6E",
"H  c #737A68",
"J  c #676974",
"K  c #726C75",
"L  c #746D7B",
"P  c #796B7A",
"I  c #637374",
"U  c #6D7474",
"Y  c #6D7B74",
"T  c #6C7A7B",
"R  c #677777",
"E  c #737473",
"W  c #7B7474",
"Q  c #727B74",
"!  c #7C7B75",
"~  c #76747C",
"^  c #747B7C",
"/  c #7B7D7B",
"(  c #7C727C",
")  c #847D7B",
"_  c #847D77",
"`  c #907D77",
"'  c #81776D",
"]  c #00861B",
"[  c #098A0B",
"{  c #028526",
"}  c #088335",
"|  c #128029",
" . c #39812B",
".. c #64BF1A",
"X. c #59BC28",
"o. c #5DBC37",
"O. c #67B92A",
"+. c #6DB435",
"@. c #64BA35",
"#. c #6BBC35",
"$. c #62BC3B",
"%. c #6CBB3B",
"&. c #67B738",
"*. c #71BB3A",
"=. c #73B737",
"-. c #28C23C",
";. c #4BCB0A",
":. c #5DCB0C",
">. c #55CC09",
",. c #56D30B",
"<. c #5CCD14",
"1. c #54CD1B",
"2. c #5DCD1D",
"3. c #5AC718",
"4. c #57D217",
"5. c #47D416",
"6. c #64CB0A",
"7. c #63D40E",
"8. c #62CB13",
"9. c #65C51C",
"0. c #62CB1C",
"q. c #68C918",
"w. c #64D413",
"e. c #5CCB23",
"r. c #58C726",
"t. c #59D224",
"y. c #5AC832",
"u. c #52D038",
"i. c #4ECD2D",
"p. c #6AC423",
"a. c #61CB21",
"s. c #69C529",
"d. c #72C320",
"f. c #6AC235",
"g. c #6CC43A",
"h. c #64C435",
"j. c #65D635",
"k. c #6FD126",
"l. c #3CB45D",
"z. c #3CBC6B",
"x. c #3EBA75",
"c. c #498255",
"v. c #5A8858",
"b. c #638A4D",
"n. c #678957",
"m. c #788B5D",
"M. c #6B9154",
"N. c #6A9855",
"B. c #78965E",
"V. c #609948",
"C. c #42BE5C",
"Z. c #69BB43",
"A. c #6AA052",
"S. c #588565",
"D. c #4F806B",
"F. c #688668",
"G. c #758566",
"H. c #6B9365",
"J. c #7A9867",
"K. c #6B8575",
"L. c #738374",
"P. c #798975",
"I. c #75817B",
"U. c #7B837C",
"Y. c #7B8272",
"T. c #749A7E",
"R. c #4AB568",
"E. c #56B56D",
"W. c #4CAA7B",
"Q. c #47B576",
"!. c #57BA77",
"~. c #58A976",
"^. c #71A369",
"/. c #3ECC49",
"(. c #37C253",
"). c #33D55B",
"_. c #3CCB65",
"`. c #39CA73",
"'. c #49C356",
"]. c #74C34A",
"[. c #6ACD4C",
"{. c #49E256",
"}. c #42C46B",
"|. c #4BC864",
" X c #47D16A",
".X c #49C775",
"XX c #54CC79",
"oX c #62C67E",
"OX c #83975C",
"+X c #869967",
"@X c #87877A",
"#X c #849C72",
"$X c #959474",
"%X c #81A26D",
"&X c #6E7583",
"*X c #737D80",
"=X c #7C7C85",
"-X c #7D7D8A",
";X c #777486",
":X c #837D83",
">X c #837D8A",
",X c #817082",
"<X c #758284",
"1X c #7B8484",
"2X c #798989",
"3X c #7C9684",
"4X c #57B786",
"5X c #6BAD86",
"6X c #55C782",
"7X c #68C485",
"8X c #848384",
"9X c #8A8C8A",
"0X c #858989",
"qX c #918D83",
"wX c #948787",
"eX c #8D928B",
"rX c #849688",
"tX c #858991",
"yX c #8A8491",
"uX c #958999",
"iX c #8F9690",
"pX c #99FFAE",
"aX c #B3FDB2",
"sX c #C2FEA4",
"dX c #ABFFC9",
"fX c #B3FEC9",
"gX c #B9FAC7",
"hX c #ACFDD5",
"jX c #C6F8D5",
"kX c #D7F1D8",
"lX c #D0F2CC",
"zX c #CFF6EC",
/* pixels */
",.>.9.9.3.8.p.p.9.2.r.u.X.s.k.q.0.3.r.h.X.e.4.,.<.8.6.0.y.y.4.>.",
",.:.O.+.#.#.=.+.O.f.y.o.[.y.r.r.h.#.].].%.].@.s.#.O.=.=.Z.Z.e.,.",
"1.y.N.J.%XJ.n.t & & & 5 aXpX{.'. .* B.+X%X^.^.J.* 6 m.m.+XN.#.2.",
"2.h.H.L.rX0XB v y y < 7 fXpX).(.c.i @XqXiXeX9X0XU A ` F _ n.&.a.",
"6...t b Y I.U E b n v 7 7X}.] o n.D G H 1X<X=X8Xg l S G.Y.M.s.6.",
"6.O.t v U Y U ^ N g s 0 ~.R.$ % K.E ! D -X<X;X-XK.K.S.K.K.b.s.6.",
"9.*.+XwX8X=X-X;XJ f 0 > h S.x &X;X-X/ ^ ;X;X&Xf jXgXXX~.e 6 *.9.",
"e.%.$XwX@X<X>X-XU j ; : j N &X;X-XyX=X/ &X&Xa h gXdXQ.!.w 3 Z.s.",
"e.*.+X$XrX3Xd B lXlX}.R.w 9 < J R *XD W iX2XN 3 !.R.O O S.n.y.y.",
"e.%.OX@X3X3X9 e lXaXXX}.c.e q 8 x E F ' 3XU.H r E.R.$ # S.S.y.e.",
"r.@.n.G <X2Xf j !. X{ } dXfX}.!.x K v u Z D F ! 0 r : 3 N 6 &.e.",
"e.@.n.G *X<XJ k R.z.@ + dXdX_.R.k M C C y Z ) ) 2 M b f U r @.4.",
"1.g.+XwX8X=XM b n.r 4 w .X`.{ O l J ! U.L.U.8X) uXuXtX2XrXH.g.,.",
"1.g.+XqX8X=X~ K < S 2 7 W.x.O # d n Y U.<XU.U.! uXuX9X0XrX^.g.3.",
"9.*.M.P.G U.1X-X8X;XM 0 q q : 7 0 9 B K L E Q Q T ~ _ G G.M.=.d.",
"q.#.M.P.Y.U.0X-X>X,XJ p d e q q 0 9 M K L ~ U A R Y G C P.M.=.d.",
":.f.J.eXuXwXK s s M L ^ kXgXE.R.3 , E ^ s s n y Y A qXeX3X^.g.3.",
"4.f.J.qXwXwXP K v v B T jXdX XC.: < E Y N m l 7 S L.9X9XiX^.f.0.",
"5.y.n.D E ^ Z D y y 2 8 4X`.] o . y y H kXjX!.4X; p p V ! n.+.9.",
"4.o.n.E Q *XK W i 0 < 8 4XQ.+ X 3 < y H aXdXXXx.; > U S j N.#.p.",
"s.=.G.yXtXtX( E H F.Y x l c ; h ; 1 y 7 .X`.} @ 8 x lXlXoX'.y.2.",
"..=.G.8X0XtX) P S F.S R K z x c ; 8 0 w Q.`.o X c f gXdX_.-.i.>.",
"k.Z.m./ 1X2X8X9XI.G.n B E 1XzXzX6X4X2XrXe v.c.w b w oX_.[ [ t.w.",
"3.#.m.! ^ 2X=XtX@X@Xy D _ 8XzXhXx.6X3X8Xn D 7 S b j Q._.{   2.:.",
"9.=.6 9 0 f &X*Xu u _ @X` @X5X4X} @ 4 v p z J p U T q 8 3  .o.2.",
"s.O.b.j w h x K v C G @X` @X3X~.@ % 4 u p a J J &X*Xg M N r o.1.",
";.j.sXaX6XW.h N D E E ! _ _ Y S.3 3 i H z z L P =X>X;X>X>X+Xh.,.",
";.j.aXaX`.z.q b Q I.~ ( :X_ I k 4 y S Q I J ( ! / 8X>XyXuX#Xf.,.",
"t.i.|._.o X . 1 N R K K ) ( x K.G.Q I.1X0XqXqX$XU.U.U A ~ n.@.2.",
"r.i./.(.[   & * v.v.G.H H F.S.S.H.H.H.J.J.#X+XB.J.M.n.b.n.V.O.a.",
"8.t.u.u.r.3...O.y.@.*.*.O.O.O.O.#.%.&.&.%.f.O.s.O.@.#.O.$.@.3.8.",
",.<.r.r.w.:.>.4.4.4.9.9.:.:.7.:.3.a.a.e.2.1.,.4.9.3.q.q.a.a.:.6."
};
