/* XPM */
static char *result[] = {
/* columns rows colors chars-per-pixel */
"32 32 115 2 ",
"   c #65656A",
".  c #67686B",
"X  c #6A6A6B",
"o  c #777063",
"O  c #787365",
"+  c #7C7A65",
"@  c #7A766C",
"#  c #7E7A6D",
"$  c #6D6D74",
"%  c #6F7075",
"&  c #6F7078",
"*  c #747475",
"=  c #7A7773",
"-  c #7B7B74",
";  c #747579",
":  c #7D7D7D",
">  c #817A6D",
",  c #807F71",
"<  c #807F79",
"1  c #DFA53D",
"2  c #EBA72F",
"3  c #EEAA2E",
"4  c #F4AB27",
"5  c #F4AD2C",
"6  c #FBB32B",
"7  c #E6A736",
"8  c #E8A732",
"9  c #EDAC33",
"0  c #E0A53A",
"q  c #E8AC3A",
"w  c #F4AE31",
"e  c #EEB13D",
"r  c #F5B234",
"t  c #FAB534",
"y  c #F4B43B",
"u  c #F9B539",
"i  c #FCBB3B",
"p  c #85836F",
"a  c #88866F",
"s  c #8F8C6B",
"d  c #848271",
"f  c #898571",
"g  c #8F8E75",
"h  c #83827C",
"j  c #88857A",
"k  c #8C8B7A",
"l  c #908E79",
"z  c #989574",
"x  c #9E9B72",
"c  c #DFA640",
"v  c #ECB446",
"b  c #F8BA44",
"n  c #FADF44",
"m  c #F2DD4B",
"M  c #E1D655",
"N  c #E5D955",
"B  c #EADE52",
"V  c #EEE14F",
"C  c #F7E345",
"Z  c #F7E845",
"A  c #F3E64D",
"S  c #F6E84D",
"D  c #FCEE4B",
"F  c #FEF04A",
"G  c #EFE252",
"H  c #F5E950",
"J  c #FAEC53",
"K  c #F0E65E",
"L  c #FDED5C",
"P  c #FEF154",
"I  c #FDF25B",
"U  c #F8EE65",
"Y  c #FDF060",
"T  c #FCF169",
"R  c #767782",
"E  c #777882",
"W  c #7C7D81",
"Q  c #818181",
"!  c #8C8C85",
"~  c #86878C",
"^  c #8C8C8D",
"/  c #938F8A",
"(  c #8F908F",
")  c #959486",
"_  c #999584",
"`  c #9D9B86",
"'  c #93928C",
"]  c #9A968D",
"[  c #99988A",
"{  c #8B8C91",
"}  c #949491",
"|  c #F1EE9E",
" . c #FDF99E",
".. c #E4E4A9",
"X. c #EDEDAD",
"o. c #F3EDA6",
"O. c #F0EFA8",
"+. c #F4F3A4",
"@. c #FEFBA6",
"#. c #F5F4AC",
"$. c #FEFBAC",
"%. c #EEEFB4",
"&. c #EFF0B0",
"*. c #F4F5B4",
"=. c #FDFDB4",
"-. c #F3F5B9",
";. c #FCFCBB",
":. c #E5E5E6",
">. c #E7E7EB",
",. c #ECECEF",
"<. c #F1F2ED",
"1. c #FFFBEC",
"2. c #F4F4F3",
"3. c #FFFEF3",
"4. c #FDFDFD",
/* pixels */
"D D D D D D D D D D D D D D D F D D D D D D D D F D D D D D D D ",
"D D D D D D D D D D D D D D D D D D D D D D D D D D D D D D D D ",
"F D x k ` ` ` ` ` ` ` ` ` ` ` ` a f ` ` ` ` ` ` + + l k k x D D ",
"D D k R ~ { { { ( ( { { { ~ { { & ; { { { { { ~   X Q Q E k D S ",
"F D + . = = = ; N G < * = = ; = ^ ^ * = Q Q Q ! X.| A M W l D S ",
"F D +   * * * = V D # % * * * * ( ! * * : Q : ! ;.@.F B W k D F ",
"D D _ ~ Q : : : k k X X : Q X.O.e 1 h : * * * ; h j a p & f D D ",
"D D ` { Q : Q Q : : X X : ! *.@.t 8 h : = ; * = * % & * & f D A ",
"F F ` { ( ^ ; * = = % * * * Q < > # * ; ! ^ ~ ^ ( ^ ( ( ~ ` D A ",
"D H ` { ( ^ = * * * ; = = = % % * * * = } } } } ( ( ( ( { ` F A ",
"D D d ; Q Q : : Q Q >.<.*...= * : :   * ,.<.*...= = = = . + D A ",
"F D p & : W Q Q Q ~ 2.4.;.*.- * Q :   * 4.3.=.X.= % * %   + D A ",
"D D _ { Q Q :.<.%.O.T Y I J 9 1 h W : j U L i v ( ^ ^ ( ~ _ F H ",
"D D ` { Q Q <.4.;.$.S Z Z A 6 9 j : W k A C 4 8 ( { ( ( { ` F P ",
"F H l W Q : Q h h h p p d - > # * * . . - p # # * = ; - W l D H ",
"D D l Q Q Q % % % % % % * & * * = = X X & * * * * * % = E k F A ",
"D D +.&.K V O . ~ ! * * : h = ~ >.<.#...{ ^ ^ ^ ^ ! ^ ^ ~ ` F H ",
"D D @.=.I S O   ! ' * * : Q Q ! 2.3.=.#.] ' } { } { ( { { ` D H ",
"D D g : , # * * ; * * * * : &.#.b y u u w 0 = * * * = : { ` D A ",
"F S p % % % * * = = * * * h *.@.r 4 4 4 6 7 * * * * * = { ` D S ",
"F D k : ! ^ ; = N G ) ~ ^ ~ j h o o # > _ _ ^ ^ ^ ~ : : W l D D ",
"D D k E ^ ^ ; = B A [ { ( ^ * % . . ; ; { { } ] ) ' Q Q W k J D ",
"D D l W Q Q W : - - Q Q Q Q W Q ^ ^ ^ ^ W ! *.o.w c { ^ { ` D S ",
"D D g W : : Q Q * * : : : : : h ' } } } Q ) =.@.6 q ' / { ` D A ",
"F D a & * * * * * * * * * * * - X.;.2.2.-.+.P P D n w 0 ; f D A ",
"F H a % * * - < - # * * = * * : X.;.3.1.=. .A A H m 5 0 ; d D S ",
"F D [ { - * X.=.y 2 h W : W * = = d y t 6 q - - j j h j ~ ` D D ",
"F D ` { ; * X.=.y 3 j W h : * * * > 3 5 w 7 = ; W Q : Q { ` D A ",
"D D k W : W W : # @ * * * * $ * E : h j / / ^ ~ W : * * & d D S ",
"F D z h k k , @ - - - p - d - d k j j j [ ] [ ) k j - , - s D S ",
"D D S S S S A S S A S S S A S S S S H H S S S S S S S S Z S D D ",
"D D F F F F F F F F F F F F F F F F F F D F F D F D F F F F D D "
};
