/* XPM */
static char *_7bc05f5400c4f45b952c899ad2a6a55[] = {
/* columns rows colors chars-per-pixel */
"64 64 253 2 ",
"   c #1D1B0C",
".  c #1E1604",
"X  c #1E1C12",
"o  c #1A1F1B",
"O  c #1E0E00",
"+  c #231602",
"@  c #241C02",
"#  c #2A1D01",
"$  c #231D0C",
"%  c #2A1D0C",
"&  c #2B1400",
"*  c #341D06",
"=  c #231E13",
"-  c #2A1E14",
";  c #251C18",
":  c #1F210E",
">  c #1E2015",
",  c #252105",
"<  c #2C2202",
"1  c #25210D",
"2  c #2B240C",
"3  c #2D290D",
"4  c #2B2800",
"5  c #322503",
"6  c #342A04",
"7  c #32250B",
"8  c #342B0D",
"9  c #3A2E0B",
"0  c #3B2C04",
"q  c #3C3202",
"w  c #3D310C",
"e  c #252313",
"r  c #2B2413",
"t  c #2D2914",
"y  c #25241A",
"u  c #2B251A",
"i  c #2D2A1B",
"p  c #27281A",
"a  c #322613",
"s  c #322A14",
"d  c #3A2D13",
"f  c #31261B",
"g  c #322B1A",
"h  c #3A2D1A",
"j  c #382717",
"k  c #3B3314",
"l  c #3C341B",
"z  c #383318",
"x  c #281F22",
"c  c #2C2322",
"v  c #292924",
"b  c #342A22",
"n  c #3C3223",
"m  c #363627",
"M  c #2F3020",
"N  c #1F2120",
"B  c #472C01",
"V  c #453A0C",
"C  c #453708",
"Z  c #553902",
"A  c #433413",
"S  c #4B3C1B",
"D  c #473A16",
"F  c #4D3816",
"G  c #433A22",
"H  c #473C23",
"J  c #653C00",
"K  c #594507",
"L  c #4E4218",
"P  c #564719",
"I  c #5D5019",
"U  c #694807",
"Y  c #67571B",
"T  c #775A19",
"R  c #694D10",
"E  c #7A6B19",
"W  c #7E701B",
"Q  c #6C611F",
"!  c #4B4323",
"~  c #4B4529",
"^  c #544B25",
"/  c #584D27",
"(  c #5B532C",
")  c #5C5326",
"_  c #5D5733",
"`  c #524731",
"'  c #635A2E",
"]  c #685826",
"[  c #775D29",
"{  c #635C32",
"}  c #6C5C33",
"|  c #645A37",
" . c #69522B",
".. c #6D642C",
"X. c #776927",
"o. c #7D7324",
"O. c #7D722B",
"+. c #6C6335",
"@. c #66613A",
"#. c #6C653A",
"$. c #6C673B",
"%. c #736532",
"&. c #736B34",
"*. c #736B3B",
"=. c #786937",
"-. c #7B733B",
";. c #7C7335",
":. c #6C6744",
">. c #736D44",
",. c #776D46",
"<. c #7C7443",
"1. c #7A754A",
"2. c #7E7952",
"3. c #7B7754",
"4. c #6E6754",
"5. c #735F44",
"6. c #875918",
"7. c #83741C",
"8. c #866819",
"9. c #895C29",
"0. c #876A26",
"q. c #827425",
"w. c #8A7B25",
"e. c #83742C",
"r. c #857A2C",
"t. c #8B7B2C",
"y. c #897629",
"u. c #866B35",
"i. c #837433",
"p. c #8C7D33",
"a. c #83793C",
"s. c #887739",
"d. c #957A38",
"f. c #93762A",
"g. c #A47A37",
"h. c #837B44",
"j. c #847C4C",
"k. c #8B7D4A",
"l. c #857746",
"z. c #957D45",
"x. c #837D53",
"c. c #867D57",
"v. c #806F44",
"b. c #A77E4A",
"n. c #8D812A",
"m. c #8C8137",
"M. c #968538",
"N. c #93822D",
"B. c #A4873D",
"V. c #A3943A",
"C. c #8C834C",
"Z. c #8C8448",
"A. c #92854B",
"S. c #988849",
"D. c #868154",
"F. c #8B8454",
"G. c #8E8954",
"H. c #86815A",
"J. c #8B855B",
"K. c #8E895B",
"L. c #928552",
"P. c #948A54",
"I. c #938B5C",
"U. c #9A8D5B",
"Y. c #9A8955",
"T. c #9B925C",
"R. c #979155",
"E. c #9E914D",
"W. c #A38C4B",
"Q. c #A78945",
"!. c #B38D48",
"~. c #A89649",
"^. c #B7974B",
"/. c #AC9A54",
"(. c #A79759",
"). c #B49C54",
"_. c #B39C5B",
"`. c #B79855",
"'. c #AC8D55",
"]. c #B9A45A",
"[. c #B4A54E",
"{. c #8B8662",
"}. c #8E8A62",
"|. c #8A8767",
" X c #948D62",
".X c #958E68",
"XX c #969163",
"oX c #9A9464",
"OX c #96926B",
"+X c #9A956A",
"@X c #9D9A6B",
"#X c #959966",
"$X c #9A9874",
"%X c #918D70",
"&X c #A19B6C",
"*X c #A59965",
"=X c #B49A65",
"-X c #A19C73",
";X c #A39F7A",
":X c #BAA563",
">X c #BFAB64",
",X c #B7A669",
"<X c #A9A77B",
"1X c #ACAA7C",
"2X c #A4A178",
"3X c #B4AD7A",
"4X c #B3AC74",
"5X c #99A07F",
"6X c #C49D55",
"7X c #C5A858",
"8X c #C8B45B",
"9X c #D6B55B",
"0X c #CCA855",
"qX c #C4AB63",
"wX c #C4AC6A",
"eX c #C7A966",
"rX c #CAB264",
"tX c #CCB46B",
"yX c #CAB76A",
"uX c #D4BB6C",
"iX c #DABC6E",
"pX c #D5B867",
"aX c #CCB672",
"sX c #C7B777",
"dX c #D5BC73",
"fX c #DABE74",
"gX c #D6BA77",
"hX c #C6AE73",
"jX c #E3BE78",
"kX c #DAC26B",
"lX c #DCC275",
"zX c #DCC27A",
"xX c #D7C476",
"cX c #E4C669",
"vX c #E4CC7A",
"bX c #E4C776",
"nX c #E9D27B",
"mX c #ADAA82",
"MX c #B1AE82",
"NX c #B8B486",
"BX c #9CA286",
"VX c #CBBB82",
"CX c #D8C587",
"ZX c #E4CD83",
"AX c #EACD86",
"SX c #EAD484",
"DX c #EBD58B",
"FX c #ECD98C",
"GX c #E6D386",
"HX c #F2D88A",
"JX c #EDDA93",
"KX c #ECD993",
"LX c #F8E290",
/* pixels */
"( / ^ ~ ^ ^ ( _ ) ) ) ) ) ..+.+.+.$.*.&.+.&.&.;.-.-.m.<.-.-.-.-.-.-.Z.C.Z.C.k.k.J..X%X%X%X$XBX5X#X2X2X$X@X$XOX$X@XOXXX+X+XXXI.oX",
"^ ^ ^ ^ ) ) ) _ ' +.+.+.+.$.*.*.&.*.$.&.$.-.<.m.&.-.Z.-.-.h.Z.<.<.Z.h.a.-.a.h.<.K. X}.%X%X%X5X$X5X<X2X2X$XOXOXOX X}.}. X XI.F.I.",
"L ^ ^ / ( ( ) { +.+.+.' ' { +.$.*.*.&.&.&.&.-.-.h.-.&.-.C.C.k.h.Z.Z.Z.Z.h.k.h.k.k.I.+X@XOX}.#X#X#X-X@X#X#X}.J.{. X}.XX#XoXI.I. X",
"^ ( ( _ { _ { $.$.$.+.$.+.+.*.-.*.&.&.&.&.&.&.&.-.-.-.Z.F.<.j.I.G.F.j.D.A.F.P.I.XXI.F.P.G.C.G.R.G.#XR.K.G.D.D.F.K.K.G.J.I.I.I.XX",
"^ _ ( { { { { $.>.*.*.*.*.&.*.<.%.&.&.&.&.-.-.=.h.Z.C.F.I.P.K.F.l.,.} ' ' { $.<.J.I.I.#XT.Z.Z.S.G.I.F.C.C.C.F.G.I.I.I.I.K.I.I.I.",
"^ ( ( ( _ _ ' +.*.#.&.*.*.+.+.&.&.*.&.&.&.-.<.h.D.x.x.I. Xx.@.L d 7 < # < # , < z ! _ j.R.G.Z.a.Z.G.Z.k.C.D.C.P.T.T.oX#XoX.XI. X",
"( ( ( ( ..{ { @.*.$.+.*.*.$.&.*.-.<.<.-.-.-.l.k.<.2.D.1.{ w 4 < d a r j g r 1 1 r 1 , l @.F.T.L.Z.Z.k.h.Z.Z.C.P.P.R.T.oXoXU. XI.",
"( _ _ { @.@...@.>.+.+.*.*.*.*.-.h.C.G.C.D.j.c.J.J.XXj.) < < 5 k H n h s t r u v ; i r 1 t L ,.I.k.Z.Z.k.Z.Z.A.P.L.G.I.T.I. X#XoX",
"@.{ { _ { @.>.<.<.*.*.*.<.<.1.j.k.*.D.D.j.I.I.c.c.j.P # 6 5 6 ` H d 7 h t p p p v v y ; e 1 k | F.C.L.Z.P.A.S.A.P.A.P.R.#XXXT.XX",
"@.@.@.@.$.$.>.>.$.>.<.<.<.<.<.<.1.j.D.L. XI.I.oX X/ 5 # 5 A / } 9 # # < 3 3 p e X y v v u $ @ d ) L.L.l.A.C.Z.A.P.A.G.P.I.I.}. X",
"@.@.:.:.>.>.>.>.*.<.2.j.<.<.<.2.,.j.x.x.K.+X.Xc.F & * ^  .<.I.I.;.&.) L q 4 3 3 2 y y e y 2   , 6 +.K.I.L.P.A.C.Z.A.C.G.G.I.XXXX",
"@.:.:.>.>.1.>.>.1.j.x.x.D.C.D.G.I. XoXF.J.*Xk.F < ] k.*XsXVXsXNX4X>X4X(.;.) V # 3 1 r   e i 2 2 < 6 2.+Xj.(.P.k.A.A.G.G.I.#XOXXX",
":.:.1.>.4.>.1.1.x.1.j.x.J.K.K.J.C.D.#XI.oXF.L 6 =.3XCXCXKXKXCXGXGXvXxXxX>X(.=.V < < a r r t 1 : t . ! J.c.Y.U.Y.A.P.U.I.oX@X@XoX",
">.3.3.3.,.:.1.3.3.1.j.x.K.I.L.D.2.D.j.G.oX] q =.,XCXCXDXFXFXFXFXFXnXxXxXxXsX*Xu.V 5 7 r e y > 1 1 2 , :.+XF.I.Y.U.R.T.T.oX*X@X+X",
"3.H.H.H.3.1.3.x.2.2.x.x.K.K.K.F.#XoXF.R.-.q I 4XVXCXKXJXLXLXLXSXFXSXHXSXxXaX=XY.} F * - e y y v   3 . ~ {.}.I.L.Y.U.U.T.oX&X@X@X",
"H.H.H.|.H.x.x.c.H.H.H.H.c.H.K. XH.XXJ.I.P 5 Z.>XsXZXFXKXFXLXLXLXLXLXnXnXxXuXwX_.z.S 7 j f - ; > y : g , _ .XU.P.L.P.P.P.T.@X-X@X",
"3.H.H.H.H.H.H.H.{.x.c. XOXOX.XOX|.$X%X:.d L W.yXxXxXGXFXJXJXJXKXFXSXnXnXlXfXwX`.M.] B 5 u x ; v > p   3 z {.+XL.Y.P.S.P.I.T.+X+X",
"3.H.D.D.2.H.H.{.J.x.x.|.|.{.H.{.|.%X4.` 7 F (.wXkXkXvXGXJXJXJXFXLXFXnXbXuXtXeX_.Q.E V 5 f x x x > e   2 r ,..XL.P.U.T.T.@XoX-X;X",
"H.D.D.D.D.D.H.K.K.c.c.{. X{.K..X$X3.H n < P ,X].yXkXZXFXJXJXJXFXSXZXvXlXuXrXeX].~.y.P 0 r u v y X e e 1 % / J.I.U.R.(.*X*X&X-X;X",
"D.D.D.D.D.D.D.D.K.H.H.K. XXXOX$X$X:.m b < +.,X].kXxXvXSXKXFXFXFXSXGXnXnXzXfXaXwX/.d.Y A 2 f i p y p y 1 @ l c.I.T.T.oX@X&XoX.X-X",
"j.j.D.F.D.D.D.D.J.c.F.I. XXX+X-X{.^ l s # v.:XqXuXkXzXZXGXGXSXSXGXGXvXkXfXgXgXwX_.S.X.V 8 i i e p p e e 1 3 3..XoXP.R.oX+X+X+X$X",
"j.C.D.F.G.G.K.K.XXK.I.I.XXoXoX+X>.k l 8 < c.,XaXpXkXxXvXFXLXFXSXGXxXyXyXrXhXhX,X_.S.%.V 8 t t 3 p y e : 1 , :.@XoX#XT.T.oX&X;X<X",
"F.D.D.L.G.G.K.T.*XXXoXoX*XoXoX X{ z h d 7 c.=X,X].`.].dXZXFXSXlXqX/.V.[.`._.=X=XW.s...C 8 t 3 t e y e : 2 , ( ;X@X&X&X@X+X;XmXmX",
"T.I.K.P.I.K.I.#XXX XU..X*XoXI.K.^ z h j a v.(.W.M.d.M.).dXvXdX8Xy.E R q.d.u.z.z.A.i.I C 8 3 s t > p > 1 r 1 ~ $X@X1X3X-X@X-XmXmX",
"I.I.I.I.j.D.I.L.c.F.U.L.T.I.J.I.~ z 3 g * /  .T u.8.T y.`.SXrXM.U K K y.z.u.U Z K I P C < h g 3 r y u : : 3 l $X2X1X1X1X<X1XMXMX",
"I.XXoXXXK.K.I.I.j.D.I.I.oXI.F.D.~ M l g O A B K T Z B R b.VX7X0.Z K 0.d.B * B B * Z I F 7 r t r p y p e 1 e z %X2X<X1X<X<X1XMXmX",
"K.I.XXoXI.I.K.F.F.I.oXoXoXI.K.H.H e m h * 5.%.0.0.K Z 6.Q.ZXrXT R d._.eXT R Z Z Y u.k.} l % a t i r r e e 1 t |.2X<X<X1X1XmXmXmX",
"J.J.K.I.K.K.I.F. XoX&XoX&XXX#XJ.G = g h * ,.(.W.^.f.d.`.eXKXtX0.e.eX7XqX`.'.9.v.`._.Y.} h a g h i e y r e 1 t |.2XmXmX1X1XMXMXMX",
"J.c.H.J.J.K. X}.J.}.+XoX@X+X#XH.z i f h + } wXqX8X0XpXfXfXAXqXg.b.eXiXpXeXeXeXeXqX].A. .d r g a g r r r e % 8 |.<X<XMX3XMXNXNXNX",
"c.2.2.H.H.}.OXOX}.XXOX@X-XXX}._ t g f l 5 } CXlXkXkXcXbXZXAXqX`.6X0XnXHXHXAXAXCXuX].S. .A a a i s r r e e e 2 2.BX<XMXMXNXNXNXNX",
"c.2.H.{.J.{.OXOXOX+X+X@X@X}.2.L d g g h 5 ] tXpXcXnXnXcXbXAXeX7XeXuXjXcXnXAXjXjX7X^.f.I * % h h s r r e e 2 1 :.;X2X1X1X3XNXNXNX",
"|.{.|..X|. X.X.XOXOX XXX@XJ.2.k t g n l & P ].kXcXcXcXnXjXZXtX].eXgXnXnXjXjXiX9X7XQ.X.F * a f r s r 1 $ r r . _ @X2X4X4X3X3XNXNX",
":.3.:.x.c.{.c.c.H.D.K.#X#X#X2.z r a b f @ B W.pX9XcXjX9XDXGX].S.S.eXAXvXiXcX9X0X!.d. .A * - t i 3 3 t p X   2 k @XS.m.S.E.(.T.*X",
"_ 3.>.1.2.}.%X$X}.#XT.R.P.K.2.3 1 e u r % 5 u.6X0X9X9X6XzXxX(.A.i.=XbXfX9X9X0X^.b.u./ F j a i i 3 1 p p y = 2 6 ..m.N.M.n.r.s.O.",
"@.H.G.G.F.I.oX*XI.T.R.Z.Z.G.H.k @ 1 u g r & Y Q.0X0XpX9XaXW. .Z B b.gXfX9X0X^.V.z.9.S A 7 - u i i e y p c y % < ..m.N.V.n.V.M.R ",
"( { +.;.;.a.-.-.a.-.;.O.m.-.<.L @ e u n s # F Q.!.0XpXpX!.U & & B Q.gX7X6X0X!.B.9.[ S A a - 2 r b c c c c ; % # ) /.~.V.V.V.[.n.",
"$...&.O.O.O.i.i.p.s.n.m.m.m.Z.P < e s l d @ w l.g.'.0XjXjX6X6.J u.'.b.d.B.V.!.d.9. .A j a t t g b x c c x x % 5 P /.M.V.V.M.M.n.",
"^ ..a.X.X.o.o.X.e.r.t.7.q.t.p.C 2 i i z a < 7 } =X'.9.f.g.6Xb.9.9.6.U 6.B.6XQ.u. ./ A f r t t t f f c ; x - r 7 V W.~.S.V.w.K K ",
"@ q X.X.X.W q.W q.t.n.w.w.m.m.K 2 g s g 7 s - F c.=X'.g.9.9.9.6.U J U f.`.`.z.u.) S k a r r t r f a i r - = r 7 C L.*Xz.] K 6 4 ",
"@ 4 ..X.o.W q.y.t.w.n.n.m.p.m.L 2 t t 3 2 b & j 5.'.=XjX6Xb.g.g.6.g.`.`.`.Q.l.} S k r 2 u s t a 7 8 r e - - 2 7 k } =.L @ < < @ ",
"& # C Q o.n.O.M.m.m.N.t.M.q.X.%.a i 2 r a 3 r r 7 =.=XqX^.g.6.6.9.g.B.!.z.z.%.^ 9 7 r i i u i u 3 8 3 1 e e r 2 a d 8 5 # 2 r r ",
"O w %.a.r.n.m.m.i.r.n.q.r.r.e.%.7 f r t a 2 r - @ 5 .._.7X6X6X!.g.!.Q.B.z.i.) w d a r i u r u a 3 3 e : : > e r t r 7 1 $ = e ; ",
"k / <.O.o.n.O.;.i.i.p.o.o.e.p...7 r a g a a r - 2 @ q &.,XgXaXeX`.).Q.s...P w 8 a t u u u ; u g e e e > > > y e r t r r 1 1 r e ",
":.*.%.X.o.o.O.r.i.i.d.y.q.r.M.%.s 2 s g r f i e 2 , @ q v.=XeXhX:XY.i.] D 6 7 s t a u r - e r f r y y > > p p p y t t 2 r > e > ",
">.<.;.O.r.o.O.m.d.i.d.p.t.q.m.i.D 1 < f r f - e 1 : : , <  .z.Y.k.} L 9 8 s h r g t r r u u u u e - ; o > p p p r e - $ 1 : : : ",
"L &.;.o.w.w.n.m.S.s.p.p.w.7.f.M.) 2 2 a a f - r y p e > $ a A D S k 2 % r g f f i f u u i i t u r - ; e e t p y r e % % 1 : : : ",
"5 ] E E 7.7.t.e.s.s.t.f.f.7.w.t.&.6 1 a - j % u X > o N M y . < 1 1 e u - ; x c f g g g t g i u - a % 1 1 y r - u % $ = = e : > ",
"+ Y o.W 7.W q.e.0.e.f.w.n.8.E W m.q & a - f = 2 y > N c o X g G g 2 $ ; u ; ; c c b b g g g s s 7 r 2 $ 1 r r e e $   $ $   X   ",
"6 R q.r.q.q.E r.O.r.q.q.n.W E 7.n.o.5 < u b u     > p e y $ $ ~ | l d 7 2 g r b b m b n t h l t - 2 r $ e e u e $   $   = = :   ",
"K o.r.e.O.r.X.X.X.p.m.t.n.n.q.7.n.q.q 8 f c y = e : :   = $ $ ! c.*. .D d d j h l n n n n G H a r - r + e e u e = = X   $ = $ $ ",
"X.Y Y X.O.] K q K Y O.-.s.O.Y I X...w a - x ; y e e X X r e . 5 k.I.l.} ' ! H G G G l ! ~ ! S s r 2 e $ r e t y e e   = = $ $ = ",
"X.Y ] %.I q , < , 4 V P P C 6 < C V < a - u i r = r v e 2 , , q %.'.U.L.k.*.} ( _ ( ^ / / P P A s r r % i r g t e e e 1 e 2 r e ",
"] I L C C q w 5 # @ & % < # & + + # . e u i r r $ r - $ + 7 P =.O./.(.E.R.k.k.h.,.,.%.+.} ] ] L d a a $ g u g u 2 r e r r r r r ",
"] q @ + w S k # @ % % + + ; r % $   $ e r r r 2 - . + % F #.k.(.s._._.E.S.A.A.A.k.A.k.k.h.h.&.I k a 7 e s r s u e e r r r a a a ",
"9 # # < ! z 3 t . . - $ O ; - $ ; ; e u r r 1 < < # A / v.*X=X_.~./.]./.~.W.E.S.A.(.(.E.R.E.a.I A a 2 % s 2 s r 2 e r r e r u a ",
"@ # # 5 ~ l s r =   ; ; = ; ; ; ; X y i t r , 4 < D ,.Y.*X,XqX>X].[.].[.~./.W././.:X=X_._.].S.] A 8 a < s u t u 2 r r e 2 2 r t ",
"O < 3 d k 8 1 2 $ $ :   1 i r ; e X e i t # < w P Z._./.,XyXaXaXuXyX8XqX].].].:X>X>X>XwX,X:XE.R A d 7 a s t r r % r t r 2 1 1   ",
"< 9 8 3 8 3 : .   1 1   1 t t 1 y e 2 2 3 8 L ] Z.].>X[.8XyXdXxXdXuXtXyXrXrXrXtXyXaXsXgXyXwX(.[ D l 8 a s t 2 2 1 e r r 1 r 1   ",
"w k 9 8 z s , . , , : , 1 t t e r 2 , < w P =.A.].yX8X8XyXkXgXzXxXlXdXdXfXfXzXfXgXgXzXgXsXwX].O.S A d d h t 2 e $ e y r r t 1 1 ",
"w 8 8 k k 4 , 3 , 1 , : , 3 3 3 1 @ , q L %.A.'.].rX8X8XkXkXgXzXlXlXfXlXbXZXbXzXzXzXgXzXaXaX=X&.S l s s h t r 1 r r r t p y r 1 ",
"9 5 5 9 3 @ . 3 , @ $ @ : 1 , 2 = @ # C X.S.'.~.rX8X9XkXkXkXuXdXfXfXfXbXzXbXbXgXbXdXdXdXaXaX_.X.S A f h g t 2 1 e e p p y e e e ",
"5 6 w 5 < < 8 3 1 1 1 $ 1 : 1 e - & 6 I t.~.[.[.yXyXpXkXkXuXdXdXfXfXfXlXzXfXgXfXzXfXdXdXdXaX_.] S A s r s t r r i t p p r e > 1 ",
"0 w w w 8 k l t , 1 1 e = e ; e ; % F o.V.[.7X7XuXpXiXlXiXuXdXdXgXdXfXfXfXfXfXiXfXiXdXgXaXaX(.[ ! A a 7 t i g m z M p p p t e e ",
"V q w D D D k $ + $ $ = ; ; ; ; = j Y M.V.[.0XrXjXfXlXzXlXdXdXaXuXdXfXfXiXiXiXiXiXuXfXfXtXwX~.[ S l 7 r g z m m m m m m M p p p "
};
