/* XPM */
static char *result[] = {
/* columns rows colors chars-per-pixel */
"32 32 58 1 ",
"  c #6E5F5F",
". c #7A5F5F",
"X c #6D6363",
"o c #6A6B6B",
"O c #776767",
"+ c #7B6666",
"@ c #766C6C",
"# c #796B6B",
"$ c #757575",
"% c #7B7373",
"& c #757979",
"* c #7E7E7E",
"= c #8C0606",
"- c #8C0B0B",
"; c #960505",
": c #9A0303",
"> c #950B0B",
", c #9A0C0C",
"< c #8C1010",
"1 c #931515",
"2 c #991515",
"3 c #921B1B",
"4 c #A40202",
"5 c #AA0404",
"6 c #A50C0C",
"7 c #AA0B0B",
"8 c #B10303",
"9 c #B00808",
"0 c #A51313",
"q c #AC1313",
"w c #A21919",
"e c #8F2222",
"r c #912525",
"t c #EE0F0F",
"y c #F50505",
"u c #FC0101",
"i c #F40B0B",
"p c #E51515",
"a c #EC1414",
"s c #E61C1C",
"d c #EA1919",
"f c #F11010",
"g c #836767",
"h c #826C6C",
"j c #827474",
"k c #8C7575",
"l c #827B7B",
"z c #8E7E7E",
"x c #917070",
"c c #917D7D",
"v c #7E8282",
"b c #818181",
"n c #8F8383",
"m c #8D8C8C",
"M c #918484",
"N c #928B8B",
"B c #8E9191",
"V c #909494",
/* pixels */
"33333333333333333333333333333333",
"33333333333333333333333333333313",
"33gjpy4;;>xnccMz#OcMnccnO jjjhe3",
"33jvdu:;:;nVBBBB&$mNBBBBoX*vv*r1",
"33 o+g>;45+&$$&$3>>2lbbldf@$**r1",
"33 o$$1;77+$$$%@>:;>j**lfu#$*lr1",
"33zml*jjjjoo*jst:=hl&$&$q9#$&$e3",
"33MVbvvvvloo*liu;-lv$$$@67O$$@r3",
"33zBBm&$%$$$$&+gOO$&mmmm05>3nmr1",
"33zBNm&$$$@@@@&&&&$&MNmM05:;Mmr1",
"33O&lvvlv*si,1O&**oXdi6155;;Xoe3",
"33O&*bllllfu4>O$l*oXiu:;55;1 oe1",
"33zBbldi,<:4;;-<hv**jk@#>:cMmmr1",
"33zVblfu;=>>;;;=hv**v*&&2>nVmNr1",
"33jb*vh#O@#O#OOO$$oo&&$$@O$&vle3",
"33jvjk$@&&$&&&&&$$XX@O$&&&$&vle3",
"33jbsu,>zB&@**vv$$<>>>nBmmNmmmr2",
"33hvdu4;cm&$**lk$O>::,zmmmmNVmr1",
"33O&2:;;O&$$$%dy>-4555,1#&&&mNr1",
"33O&1:>>O&$&$%au;=7777;>#&$$mmr3",
"33jvw5.%nmmmmmj+O O@MMMnmm**vle3",
"33jvw7+&mNNBNm&$oo$&mBNVmmb*vlr1",
"33jvjjllsikvbb*lmmmmbv&&&&BBmmr3",
"33hvvvvlaukv****nnmMlj@@@@nMNmr1",
"33O$&$mmq8+&&$$$w7ii77>>777q@%e3",
"33#&$$mMw5+&$$$@08yy85::5550@&e2",
"33zm&$3,55jvl*$$@@@+>::;:;hlmme3",
"33MB&@>:47hv**&$&&$$2;>>>1jvmmr1",
"33jv**1:;;#&&&$&*v*vnnMMl%&&&&e3",
"33g*jj>;;;.@@@@@jjjlnmmml*@@OOr3",
"333rr33333333e33e33r3rr33r333313",
"33133133333333333133311323333333"
};
