/* XPM */
static char *result[] = {
/* columns rows colors chars-per-pixel */
"32 32 128 2 ",
"   c #260D02",
".  c #331F06",
"X  c #17351C",
"o  c #003B26",
"O  c #043C27",
"+  c #053C27",
"@  c #053B2A",
"#  c #003E2C",
"$  c #043D2C",
"%  c #053F2C",
"&  c #043F2D",
"*  c #0B3B32",
"=  c #492A0B",
"-  c #422815",
";  c #58381A",
":  c #573A22",
">  c #044230",
",  c #044332",
"<  c #014533",
"1  c #064533",
"2  c #044635",
"3  c #054635",
"4  c #044837",
"5  c #0C4138",
"6  c #0D4339",
"7  c #0D443B",
"8  c #0D473D",
"9  c #024939",
"0  c #044938",
"q  c #044C3A",
"w  c #024A3C",
"e  c #044E3F",
"r  c #0D483E",
"t  c #04503F",
"y  c #0B5038",
"u  c #3C4025",
"i  c #425138",
"p  c #724A2B",
"a  c #655439",
"s  c #6F553E",
"d  c #7E593B",
"f  c #0E4B41",
"g  c #0E4E43",
"h  c #035444",
"j  c #035747",
"k  c #0E5044",
"l  c #0E5247",
"z  c #0F5448",
"x  c #03594A",
"c  c #035C4B",
"v  c #00594F",
"b  c #0A5F49",
"n  c #0F594C",
"m  c #0F594D",
"M  c #10584B",
"N  c #045F56",
"B  c #036050",
"V  c #0F6253",
"C  c #00635E",
"Z  c #02695A",
"A  c #106254",
"S  c #106456",
"D  c #106557",
"F  c #116759",
"G  c #116C5D",
"H  c #286557",
"J  c #027667",
"K  c #07726B",
"L  c #017E6F",
"P  c #117161",
"I  c #127463",
"U  c #147560",
"Y  c #017A7E",
"T  c #168C79",
"R  c #1A8E7B",
"E  c #16907B",
"W  c #16947F",
"Q  c #A68A71",
"!  c #018086",
"~  c #098183",
"^  c #00858A",
"/  c #00888E",
"(  c #009A8C",
")  c #1B9782",
"_  c #149B82",
"`  c #179D87",
"'  c #189984",
"]  c #1B9984",
"[  c #189D87",
"{  c #1B9D87",
"}  c #189F89",
"|  c #1C9E88",
" . c #1BA08A",
".. c #18A38C",
"X. c #1CA38C",
"o. c #1CA58E",
"O. c #00A398",
"+. c #19A890",
"@. c #18AA92",
"#. c #1CAA92",
"$. c #19AF97",
"%. c #1DAD95",
"&. c #19B299",
"*. c #1DB198",
"=. c #1DB299",
"-. c #1AB89E",
";. c #1DB89F",
":. c #0098A4",
">. c #029AA6",
",. c #01A0AD",
"<. c #1ABAA0",
"1. c #1ABBA0",
"2. c #1ABBA1",
"3. c #1DBAA0",
"4. c #1FBAA3",
"5. c #1EBDA3",
"6. c #1BBEA4",
"7. c #00A6B7",
"8. c #1EC0A5",
"9. c #1EC1A6",
"0. c #1BC5A9",
"q. c #1EC4A8",
"w. c #1EC7AB",
"e. c #1FC7AB",
"r. c #1CC8AC",
"t. c #01B6CB",
"y. c #02C2DA",
"u. c None",
/* pixels */
"u.u.u.u.u.u.u.u.u.u.u.u.u.u.u.u.u.u.u.u.u.u.u.u.u.u.u.u.u.u.u.u.",
"u.u.u.u.u.u.u.u.u.u.u.u.u.u.u.u.u.u.u.u.u.u.u.u.u.u.u.u.u.u.u.u.",
"u.u.u.u.u.u.u.u.u.u.u.u.u.u.u.u.u.u.u.u.u.u.u.u.u.u.u.u.u.u.u.u.",
"u.u.u.u.u.u.u.u.u.u.u.u.u.u.u.u.u.u.u.u.u.u.u.u.u.u.u.u.u.u.u.u.",
"u.u.u.u.u.u.u.u.u.u.u.u.u.u.u.u.u.u.u.u.u.u.u.8 r 8 8 u.u.u.u.u.",
"u.u.u.u.u.u.u.u.u.u.u.u.u.u.u.u.u.u.u.u.u.u.A 1.R M 5 u.u.u.u.u.",
"u.u.u.u.u.u.u.u.u.u.u.u.u.u.u.u.u.u.u.u.u.I } %.e.F * u.u.u.u.u.",
"u.u.u.u.u.u.u.u.u.u.u.u.u.u.u.u.u.u.u.u.S [ 8.X...D u.u.u.u.u.u.",
"u.u.u.u.u.u.u.u.u.u.u.u.u.u.u.u.u.u.u.k <.*. .2.8 u.u.u.u.u.u.u.",
"u.u.u.u.u.u.u.u.u.u.u.u.u.u.u.u.u.u.z r.] 3.@.7 u.u.u.u.u.u.u.u.",
"u.u.u.u.u.u.u.u.u.u.u.u.u.u.u.u.u.G $.| w.E n u.u.u.u.u.u.u.u.u.",
"u.u.u.u.u.u.u.u.u.2 u.u.u.u.u.u.P ' ;.=.W D u.u.u.u.u.u.u.u.u.u.",
"u.u.u.u.u.u.u.u.u.0 j u.u.u.u.m +.5.{ &.l u.u.u.u.u.u.u.u.u.u.u.",
"u.u.u.u.u.u.u.u.u.t ( x u.u.g 0.o.#.-.6 u.u.u.u.u.u.u.u.u.u.u.u.",
"u.u.u.u.u.u.u.u.u.u.q ,.Y b 6.) q.` f u.u.u.u.u.u.u.u.u.u.u.u.u.",
"u.u.u.u.u.u.u.u.u.u.% t.! y 4.9.T A u.u.u.u.u.u.u.u.u.u.u.u.u.u.",
"u.u.u.u.u.u.u.u.u.u.< / ^ K U _ V u.u.u.u.u.u.u.u.u.u.u.u.u.u.u.",
"u.u.u.u.u.u.u.u.u.u.u.X ~ 7.w 9 u.u.u.u.u.u.u.u.u.u.u.u.u.u.u.u.",
"u.u.u.u.u.u.u.u.u.u.= d i C y.O.c @ u.u.u.u.u.u.u.u.u.u.u.u.u.u.",
"u.u.u.u.u.u.u.u.u.; Q : . u.N h L J & u.u.u.u.u.u.u.u.u.u.u.u.u.",
"u.u.u.u.u.u.u.# u p s - u.u.+ u.Z B , u.u.u.u.u.u.u.u.u.u.u.u.u.",
"u.u.u.u.u.u.1 v H a   u.u.u.u.u.$ > 4 u.u.u.u.u.u.u.u.u.u.u.u.u.",
"u.u.u.u.u.u.O >.:.o u.u.u.u.u.u.u.u.u.u.u.u.u.u.u.u.u.u.u.u.u.u.",
"u.u.u.u.u.u.2 e e 3 u.u.u.u.u.u.u.u.u.u.u.u.u.u.u.u.u.u.u.u.u.u.",
"u.u.u.u.u.u.u.u.u.u.u.u.u.u.u.u.u.u.u.u.u.u.u.u.u.u.u.u.u.u.u.u.",
"u.u.u.u.u.u.u.u.u.u.u.u.u.u.u.u.u.u.u.u.u.u.u.u.u.u.u.u.u.u.u.u.",
"u.u.u.u.u.u.u.u.u.u.u.u.u.u.u.u.u.u.u.u.u.u.u.u.u.u.u.u.u.u.u.u.",
"u.u.u.u.u.u.u.u.u.u.u.u.u.u.u.u.u.u.u.u.u.u.u.u.u.u.u.u.u.u.u.u.",
"u.u.u.u.u.u.u.u.u.u.u.u.u.u.u.u.u.u.u.u.u.u.u.u.u.u.u.u.u.u.u.u.",
"u.u.u.u.u.u.u.u.u.u.u.u.u.u.u.u.u.u.u.u.u.u.u.u.u.u.u.u.u.u.u.u.",
"u.u.u.u.u.u.u.u.u.u.u.u.u.u.u.u.u.u.u.u.u.u.u.u.u.u.u.u.u.u.u.u.",
"u.u.u.u.u.u.u.u.u.u.u.u.u.u.u.u.u.u.u.u.u.u.u.u.u.u.u.u.u.u.u.u."
};
