/* XPM */
static char *_4f92a4002e94d7c817e37cc3c465c2d[] = {
/* columns rows colors chars-per-pixel */
"64 64 212 2 ",
"   c #000000",
".  c #080705",
"X  c #070803",
"o  c #0A0A05",
"O  c #0D0D0A",
"+  c #090708",
"@  c #110F0B",
"#  c #0E1005",
"$  c #141406",
"%  c #14130A",
"&  c #1B170D",
"*  c #1B1B0B",
"=  c #151412",
"-  c #1B1914",
";  c #221D0C",
":  c #24240D",
">  c #29260F",
",  c #2D2D0E",
"<  c #3A270F",
"1  c #39280F",
"2  c #33320C",
"3  c #2D2C14",
"4  c #292718",
"5  c #372B1C",
"6  c #352B15",
"7  c #2F3011",
"8  c #3C3A13",
"9  c #373519",
"0  c #2A2926",
"q  c #312E27",
"w  c #35332E",
"e  c #3A372E",
"r  c #3F3C37",
"t  c #472903",
"y  c #4B2B03",
"u  c #422C0E",
"i  c #4D2E09",
"p  c #452701",
"a  c #4D310A",
"s  c #4D3006",
"d  c #533306",
"f  c #51330C",
"g  c #59370E",
"h  c #432F14",
"j  c #4C3513",
"k  c #44331B",
"l  c #473213",
"z  c #543611",
"x  c #573A15",
"c  c #593A15",
"v  c #52391B",
"b  c #5A3C1B",
"n  c #3F4021",
"m  c #57570D",
"M  c #494817",
"N  c #504F19",
"B  c #545212",
"V  c #5A5712",
"C  c #5E5A14",
"Z  c #5B581A",
"A  c #62421C",
"S  c #635B12",
"D  c #6E6A15",
"F  c #686619",
"G  c #766D16",
"H  c #7A7312",
"J  c #77701C",
"K  c #797617",
"L  c #564225",
"P  c #514D27",
"I  c #56442B",
"U  c #56472A",
"Y  c #55512B",
"T  c #5E4E3C",
"R  c #4C4626",
"E  c #694825",
"W  c #6F5324",
"Q  c #715427",
"!  c #62503A",
"~  c #696629",
"^  c #7E7725",
"/  c #7A782B",
"(  c #666232",
")  c #786C3C",
"_  c #7C733C",
"`  c #5E5140",
"'  c #615242",
"]  c #675C48",
"[  c #837D13",
"{  c #807928",
"}  c #AC7E26",
"|  c #BA7C24",
" . c #887E40",
".. c #8A8417",
"X. c #92851C",
"o. c #9E971D",
"O. c #9A961B",
"+. c #A69B0F",
"@. c #A28F16",
"#. c #B2851F",
"$. c #B48C1C",
"%. c #BC8D1E",
"&. c #A59A17",
"*. c #BB9F13",
"=. c #BA9A1D",
"-. c #B6971B",
";. c #B5AC0D",
":. c #B8AA0B",
">. c #BFB808",
",. c #AEAB14",
"<. c #AAA216",
"1. c #BCA315",
"2. c #B2A61D",
"3. c #BDA31C",
"4. c #B4AD19",
"5. c #BEAC1C",
"6. c #B4A816",
"7. c #BDB414",
"8. c #B9B718",
"9. c #868627",
"0. c #989629",
"q. c #AE8324",
"w. c #AC832A",
"e. c #AE8928",
"r. c #B38B25",
"t. c #BE8A24",
"y. c #B2852B",
"u. c #B58C2C",
"i. c #B88E2C",
"p. c #B78527",
"a. c #A99D2F",
"s. c #BB9526",
"d. c #B69820",
"f. c #BD9B24",
"g. c #B7912C",
"h. c #B9932A",
"j. c #BD9C2C",
"k. c #B39221",
"l. c #B28930",
"z. c #A39939",
"x. c #B59134",
"c. c #A4A32B",
"v. c #AEA023",
"b. c #B3A523",
"n. c #BEA123",
"m. c #B3AA27",
"M. c #BAB124",
"N. c #ACA731",
"B. c #BCAF3C",
"V. c #C09F1C",
"C. c #C0921A",
"Z. c #C5BC05",
"A. c #CCBD03",
"S. c #C5B50D",
"D. c #C9B60D",
"F. c #C5BB0A",
"G. c #CBBC0B",
"H. c #C4B706",
"J. c #D0BE04",
"K. c #C1A416",
"L. c #C3AD14",
"P. c #C2A41D",
"I. c #C4AC1A",
"U. c #C5B313",
"Y. c #CAB514",
"T. c #CBBC13",
"R. c #C6B41B",
"E. c #CAB41A",
"W. c #CBBA19",
"Q. c #C6B811",
"!. c #D1BD10",
"~. c #C0882B",
"^. c #C09323",
"/. c #C29F2B",
"(. c #C1A324",
"). c #C3AA21",
"_. c #C1A62A",
"`. c #CEBF32",
"'. c #C5BD36",
"]. c #C5BA2C",
"[. c #C6C203",
"{. c #CBC304",
"}. c #CEC904",
"|. c #C5C10C",
" X c #CDC30A",
".X c #CDCB0B",
"XX c #D1C404",
"oX c #D2CB04",
"OX c #D2C50C",
"+X c #D2C90D",
"@X c #D6D202",
"#X c #DAD502",
"$X c #DCD903",
"%X c #D8D50E",
"&X c #CCC212",
"*X c #CFC817",
"=X c #C5C21D",
"-X c #CCCB1C",
";X c #CCC11A",
":X c #D6CC13",
">X c #D4CB19",
",X c #D4C515",
"<X c #DCDB13",
"1X c #D5D317",
"2X c #CEC223",
"3X c #C9C820",
"4X c #D2C12F",
"5X c #D7CB27",
"6X c #D7CD30",
"7X c #978F47",
"8X c #A19A47",
"9X c #B8AC46",
/* pixels */
"                                                              / M                                                               ",
"                                                          O O.$X<X~                                                             ",
"                                                        , 4.#X#X$X<X/ =                                                         ",
"                                                      * <.#X#X#X$X$X1X9.O                                                       ",
"                                                    7 ,.$X#X#X#X#X#X$X%X9.O                                                     ",
"                                                  2 8.#X#X#X#X#X@X#X#X$X<X0.%                                                   ",
"                                                  B .X@XoXT.OXoX@X!.+X#X#X=X:                                                   ",
"                                                  X D  X3.g./. XY.g.h.Q.>.8                                                     ",
"                                                    > 5.h.u.i.).s.i.g.f.o.X                                                     ",
"                                                  : ,..XE.g.P.oXG.s.^. X%Xc.%                                                   ",
"                                                  m .X@XXXE.&XoXoXQ. X@X@X-X7                                                   ",
"                                                  o K }.P.u.n. XY.h.s.T.>.M                                                     ",
"                                                    2 5.h.u.u.I.s.i.u.(.b.$                                                     ",
"                                                  ; 4..XU.h.1.oXT.s.P.XX1Xc.#                                                   ",
"                                                  m .XoX}.E. XoXoXT. XoX@X3X3                                                   ",
"                                                  # [ {.1.s._. XD.h./.G.|.V                                                     ",
"                                                    8 5.g.i.i.L.j.u.u.(.m.;                                                     ",
"                                                  , 4.}.).h.P. XW.s.P. X1Xc.%                                                   ",
"                                                  D }.oX XR.{.{.}.U.|.oXoX-X7                                                   ",
"                                                  $ 0.{.L.h._.{.F.s.n.G..XV                                                     ",
"                                                    3 b.g.g.l.).j.u.u.f.v.%                                                     ",
"                                                  3 M..X).g.f.{.W.g.f.G.:XN.$                                                   ",
"                                                  V .X}.{.U.T.{.}.U.&X}.}.-X3                                                   ",
"                                                  X J {.5.g.n.G.U.g.j.Q.|.N                                                     ",
"                                                    9 5.h.u.x.5.j.u.u.n.b.*                                                     ",
"                                                  ; &.|.n.g.f.F.R.g.s.U.>X0.%                                                   ",
"                                                  B F.[.T.I.D.[.[.I.U.}.}.=X,                                                   ",
"                                                  X K Z.5.x.n.F.U.g.j.R.F.B X                                                   ",
"                                                    8 5.h.i.u.P.h.u.u.f.2.:                                                     ",
"                                                  $ o.T.(.u.s.S.I.i.h.U.*X0.$                                                   ",
"                                                  C |.[.F.I.D.A.[.L.D.{.}.=X,                                                   ",
"                                                  O ..[.L.t.f.Z.D.~.^.U.F.B                                                     ",
"                                    .               2 1.t.| | *.~.| | C.-.*                                                     ",
"                                                  > M. XV.p.t.Z.S.%.C.G. Xm.*                                                   ",
"                                                  Z |.{.A.L.D.A.Z.L.G.A.{.8.:                                                   ",
"                  X                               & ..Z.I.^._.S.S././.S.>.V X   .       .                                       ",
"                                  X Y _ +   9  .4   4 b.t.p.y.V.f.p.u.^.a.% X R 8X5   4 8XR                                     ",
"                                X ~ ;X6X7XY ].6X9XP a.>XP.q.$.,XE.#.t.E.>X8X( `.:X'.Y 9X,X2X~ .                                 ",
"                              O / &XXXXX5XW.oXXX>X`.,XXX+XT.,XoXoX,X,XoXoX>X4X+XXXoX`.OX{.XX&X/ O                               ",
"                            X / T.OXXXA.f.h.T.J.I.g.U.{.+XoX{.oXXX}.oX}.{.(.s.E.XXL.i.P.{.XXXXOX^ .                             ",
"                            : U.J.XXJ.*.y.y.s.K.u.l.g.Q.}.{.}. X}.{.}.{.5.x.x.g.R.g.p.u.L.XXA.J.2.%                             ",
"                            . S H.J.J.G.q.q.r.p.y.y.e.g.U.[.[.h.n.{.{.5.x.u.u.g.l.h.e.=.A.A.A.6.4                               ",
"                                B H.J.A.G.$.} q.q.-.q.w.e.1.-.e.l.3.d.w.w.r.=.p.y.y.1.{.A.A.+.*                                 ",
"                                  N S.A.A.A.$.} 1.Z.*.q.6.Z.S.q.r.F.F.-.q.U.{.*.q.*.XXA.A.0.$                                   ",
"                                    3 +.A.A.A.H.A.{.F.X.F.[.G.@.<.[.{.;... X{.A.G.A.A.A.^                                       ",
"                                      % 6.J.J.A.A.A.D   F G.&.E Q ;.4.8 X ..G.A.A.A.A.G                                         ",
"                                        ; +.A.A.F.J o   0 ) W A E W ] -   % [ G.A.H.H o                                         ",
"                                          $ O.:.S X   % ! A g A c g A ! O   X J :.^ .                                           ",
"                                            % :       - c d d c g d i v O     X > +                                             ",
"                                                        & z g A b z k =                                                         ",
"                                                        0 ' b b b b ] 0                                                         ",
"                                                      = T z d b c f x ` %                                                       ",
"                                                      % z i y f f y i l O                                                       ",
"                                                        & j i b c i l @                                                         ",
"                                                        w ! g b b g ' w                                                         ",
"                                                    . r N i y z f y i I e .                                                     ",
"                                                  + q I s t i i i y y y I 0                                                     ",
"                                                  - L y y t y z f y t y f L =                                                   ",
"                                                  % u y t t a a f i y t t < +                                                   ",
"                                                    % u t t t i i t t t < +                                                     ",
"                                                      @ < y p t p p t 1 o                                                       ",
"                                                        & h y y i i 6 O                                                         ",
"                                                          + k v v 5 .                                                           ",
"                                                              5 4                                                               "
};
