/* XPM */
static char *_c1f72e066ee433596339de36fe56297[] = {
/* columns rows colors chars-per-pixel */
"64 64 222 2 ",
"   c #000000",
".  c #040B0B",
"X  c #0B0C0A",
"o  c #16140C",
"O  c #041313",
"+  c #0C191A",
"@  c #061818",
"#  c #161C19",
"$  c #3A331F",
"%  c #151F20",
"&  c #052A2A",
"*  c #0C2B2C",
"=  c #042424",
"-  c #172627",
";  c #063D3E",
":  c #0A3B3C",
">  c #073333",
",  c #143838",
"<  c #3D3723",
"1  c #25393B",
"2  c #433C24",
"3  c #13403C",
"4  c #54451F",
"5  c #614D1F",
"6  c #554926",
"7  c #584C27",
"8  c #595229",
"9  c #514A2E",
"0  c #695829",
"q  c #765B27",
"w  c #6C5F34",
"e  c #735F30",
"r  c #5F6138",
"t  c #776738",
"y  c #746534",
"u  c #043E40",
"i  c #273F40",
"p  c #054244",
"a  c #0A4344",
"s  c #064648",
"d  c #054A4C",
"f  c #0B4D4E",
"g  c #1C4748",
"h  c #065354",
"j  c #08595A",
"k  c #1A5758",
"l  c #0A4F50",
"z  c #324A4C",
"x  c #375658",
"c  c #2E4E4B",
"v  c #095F61",
"b  c #135E61",
"n  c #275D60",
"m  c #066263",
"M  c #096566",
"N  c #086A6B",
"B  c #1B6769",
"V  c #086F71",
"C  c #057679",
"Z  c #097C7E",
"A  c #057679",
"S  c #187273",
"D  c #156F72",
"F  c #37686A",
"G  c #267977",
"H  c #377A78",
"J  c #34686A",
"K  c #635C44",
"L  c #557D58",
"P  c #7A6D43",
"I  c #7E7249",
"U  c #6B7D5D",
"Y  c #656240",
"T  c #405F61",
"R  c #47686B",
"E  c #5F7B63",
"W  c #8D682A",
"Q  c #86652A",
"!  c #916B2B",
"~  c #98712D",
"^  c #8B6B32",
"/  c #856B39",
"(  c #987435",
")  c #976F30",
"_  c #897D54",
"`  c #877549",
"'  c #408065",
"]  c #9C8E66",
"[  c #A09166",
"{  c #027E81",
"}  c #048284",
"|  c #038689",
" . c #028B8D",
".. c #0A8A8C",
"X. c #0B8487",
"o. c #198587",
"O. c #038E90",
"+. c #0A8F91",
"@. c #188E92",
"#. c #039293",
"$. c #0C9394",
"%. c #049699",
"&. c #0E9698",
"*. c #039B9C",
"=. c #0C9A9C",
"-. c #129699",
";. c #13999D",
":. c #1A9B9E",
">. c #139595",
",. c #13908F",
"<. c #288789",
"1. c #228E91",
"2. c #249B9D",
"3. c #289598",
"4. c #36918E",
"5. c #039EA1",
"6. c #0D9FA2",
"7. c #149FA2",
"8. c #1B9CA1",
"9. c #249BA0",
"0. c #03A2A5",
"q. c #0CA3A5",
"w. c #02A5AA",
"e. c #0BA6A9",
"r. c #02AAAE",
"t. c #0CAAAD",
"y. c #13A1A4",
"u. c #1BA2A5",
"i. c #11ACAF",
"p. c #1BA8AC",
"a. c #19A5A9",
"s. c #03ADB1",
"d. c #0BAEB2",
"f. c #14AFB2",
"g. c #1BADB2",
"h. c #04B1B4",
"j. c #0CB2B4",
"k. c #04B5B9",
"l. c #04B9BC",
"z. c #0BBABE",
"x. c #08B5BA",
"c. c #13B2B4",
"v. c #1BB3B6",
"b. c #12B6BA",
"n. c #1DB6B9",
"m. c #12BABE",
"M. c #1BBABE",
"N. c #09B0AF",
"B. c #23A3A6",
"V. c #23AAAC",
"C. c #28A7AA",
"Z. c #39A6A9",
"A. c #2CAFB2",
"S. c #23ADB1",
"D. c #32ACB0",
"F. c #24B3B6",
"G. c #24B6BA",
"H. c #2BB6B9",
"J. c #24BABB",
"K. c #2ABABC",
"L. c #2BB2B4",
"P. c #34B2B5",
"I. c #3CB6BB",
"U. c #34BBBD",
"Y. c #3BBABD",
"T. c #35B3B7",
"R. c #58979B",
"E. c #4A8F8D",
"W. c #41A29B",
"Q. c #489EA2",
"!. c #679FA4",
"~. c #43A5A9",
"^. c #4AAEB2",
"/. c #43AEB2",
"(. c #43B5B9",
"). c #44BABD",
"_. c #4BBBBE",
"`. c #4EB4B7",
"'. c #54B6B9",
"]. c #5FACB1",
"[. c #1CBCC0",
"{. c #13BCC0",
"}. c #0DBBC0",
"|. c #23BDC1",
" X c #2BBEC2",
".X c #3BBEC1",
"XX c #35BDC2",
"oX c #43BEC2",
"OX c #4CBDC1",
"+X c #53BFC3",
"@X c #5ABFC2",
"#X c #6ABEC2",
"$X c #38C1C5",
"%X c #45C2C6",
"&X c #4BC2C5",
"*X c #48C2C8",
"=X c #52C2C4",
"-X c #5AC3C6",
";X c #54C4C9",
":X c #5BC6CA",
">X c #5EC8CD",
",X c #6CCACE",
"<X c #66C4C8",
"1X c #75CBCD",
"2X c #78C8CB",
"3X c #66CAD1",
"4X c #75CDD2",
"5X c #7BCED1",
"6X c #7CD1D6",
"7X c #84CFD2",
"8X c #84D1D5",
"9X c #8BD2D5",
"0X c #8CD4D9",
"qX c #83D3D9",
"wX c #95D6DB",
"eX c #98D7DC",
"rX c #9CD9DC",
"tX c #91D5D7",
"yX c #80C6CA",
"uX c #A1DBDF",
"iX c #9FDAE0",
"pX c #A3DCE1",
/* pixels */
"                                                                                                                                ",
"                                                                                                . # # O                         ",
"                                                                                                b H.H.T.XXI.oXZ./.~.Q.Q.!.%     ",
"                                                                                                j s.r.r.w.w.w.w.r.r.r.r.:X-     ",
"                                                                                                d s.r.w.w.w.w.w.w.r.r.r.*X1     ",
"                                                                                          X     u s.r.r.r.w.5.w.w.w.r.s.*X1     ",
"                                                                                        g 3.{ S 4.oXOXXX[.d.d.i.t.w.r.s.*X1     ",
"                                                                                        v r.r.5.OXwXiXiXOXd.d.d.|.5.r.s.oXz     ",
"                                                                                        h s.r.%.`.eXeXwX.Xr.r.w.G.5.r.s.oXi .   ",
"                                                                                  . .   p r.r.%.^.eXeXwX.Xs.r.w.|.w.w.r.oXx     ",
"                                                                                + 4.3.<.Z.OX.XA.^.4X6X6XI.t.d.s.G.w.r.s.*Xx     ",
"                                                                                > r.r.0.@XwXeXiX@Xd.d.b.OX4X4X3X#Xs.s.s..XT     ",
"                                                                                @ s.r.5.'.wXwXwX@Xs.s.s.OXiXiXiX6Xs.s.s.XXR .   ",
"                                                                          . . . O s.w.*.^.wXwXwX>Xs.s.k.oXwXiXiX6Xs.s.s.XXR     ",
"                                                                        O G 9.@.<.;X*X(.'.,X4X5X+Xf.d.x.OXiXeXeX6Xk.x.x. XR     ",
"                                                                        @  .s.w.C.eXeXeX-Xd.d.c.XX5X5X5X#X9.C.D.OXv s h k +     ",
"                                                                        O { s.w.B.eXrXwX=Xs.s.s. XtXeXeX5X5.5.w.T.*             ",
"                                                                        O C w.0.8.eXeXeX-Xh.s.s. XwXeXeXqXw.s.s.oX,             ",
"                                                                  B B.1.o.~.Y.T.Z.9XtX0X@Xs.h.h.|.wXiXeX6Xs.s.h.oXi             ",
"                                                                  Z r.r.V.tXeXrX7Xs.d.j.H.4X1X,X#X~.^.'.+Xo.v A G %             ",
"                                                                  V r.w.B.0XrXrX7Xr.s.s.K.wXrXrX0X7.5.w.n.k                     ",
"                                                            . .   M 0.0.8.7XeXrXtXd.s.s.K.wXrXrX0Xg.w.s.H.J                     ",
"                                                          * S.v.u._.=X_.^.<X4X8X2Xf.h.s.G.wXrXrXiXv.s.s. XR                     ",
"                                                          & t.r.0.1XrXrX7XH.s.s.d.5X9X9X7X3.D.T.OX<.u h k %                     ",
"              * o.f.7...C N j d @                         = 0.w.0.2XeXeX7XH.s.N.d.qXeXrXuX5.w.s.n.H                             ",
"              j %.%.%.&.&.;.d.s.p                   g k ; a *.5.%.<XrXrX9XT.r.h.s.8XrXrXpXw.s.h.|.E.                            ",
"              l O.#.#.O.O.O.e.s.s                   i.f.c.I.8X2X#X-X:X<X-XP.F.v.v.8XrXrXuXs.k.l.[.E.                            ",
"              s O.#.O.O. .O.w.r.d                   6.d.t.T.rXrXeX).c.v.v.+X5X5X2X~.D.(.<X3.d j B 1                             ",
"              ;  .O.O.| { { 5.s.N @ @ O             O.s.t.A.rXrXrX_.t.j.v.:XrXrXrXI.5.r.G.4.                                    ",
"              >  . .+.t.t.7.7.5.5.%.$.$.    @ B b f :.i.5.C.eXrXrX&Xj.N.f.-XrXrXrXI.r.d. XR.                                    ",
"              & | |  .d.k.k.8.{ O.#.r.h.    l c.v.f.9XqX7X<X+X;X:X_.T.F.G.'.9XeXiXoXe.j.|.!.                                    ",
"              & | | X.s.k.k.p.{ O.O.0.0..   p s.d.t.uXrXrX7Xv.g.g.).tXtX9X#X:.V.F.%X& * u %                                     ",
"              @ j m N q.h.x.p.A { { 5. .& O u 5.t.w.rXrXrX8XF.f.f.oXeXeXrX5X*.r.h.:XO                                           ",
"                    . j ..$.u.7.7.-.6.5. .{ 1.I.P.B.0XwXrX8XT.v.c.oXrXrXrX5X0.N.h.,X+                                           ",
"                      d | | ;.z.}.}.8.{ O.+.).wXuXrXU.K.U.Y.:X<X=X@X#X5X8X1X*.#.0.].X                                           ",
"                      d | ..;.|.[.[.8.{ O.O.T.qXrXrXU.v.v.G.8XrXrX2X&.q.i..Xk O @ +                                             ",
"                      p  . .;. X|.|.V.{ O.#.P.8XpXiX$Xv.c.n.8XuXuX7Xq.r.h..Xn                                                   ",
"                      u  . .&.|.|.|.V.{ O.#.A.4XwXwX$Xn.c.v.6XuXuX7Xi.d.h..XH                                                   ",
"                      ;  . .$.m.[.[.S.{ O.#.=.h.m.M.-X8X6X1X'.<X1X4X9.Z ,.Z.1                                                   ",
"                      ;  . .+.b.x.}.[.C  .#.%.r.m.M.3XrXuXuX/.0.r.v.<.                                                          ",
"                      * A } ..c.k.}.|.C |  .%.5.x.m.>XrXpXpX(.w.h.F.E.                                                          ",
"                            . D -.8.V.8.-.@.9.6.t.N.&X0X0XwX(.0.h.G.R.                                                          ",
"                              j O.O.$.[.[.[.8.|  .%.=.7.V.P.V.M a k %                                                           ",
"                          X X j O.O.+. X|.|.p.{ #.#.#.O.#.=.t.h                                                                 ",
"                        2 8 9 H >.#. .$X XXXV.{ #.#.#.#.#.=.0.v                                                                 ",
"                      . 6 0 y / W ^ t W.V.A.D.8.:.,...} }  .0.| m h u .                                                         ",
"                        4 w w t ! W W 4.%.%.V.%X%X$X$X$XJ.g.=.0.e.s.m.,                                                         ",
"                . < 9 $ 6 8 0 t ~ ! ~ 4.0.5.V.%X%X%X X|.m.m.Z  .#.6.}.:                                                         ",
"                o y y w y q 0 q ^ ( ` E.*.*.u.&X%X$X$XM.{.{.X.| #.*.z.a                                                         ",
"      . O       X 0 0 0 ! ~ ! q 7 t ` U x : k ).Y..XJ.M.z.{...{ | %.k.V > & = .                                                 ",
"    * Z } A M f 3 8 0 0 ( ~ ~ Q 7 P I I 4     $.$.&.&.$.&.:.V.u.:.:.r.h.h.h.F.,                                                 ",
"    2.H.K.F.g.q.,.8 7 5 ^ ( ( ^ 7 P ` _ 8     #.*.%.#.#. .| j.l.l.b.X.*.0.p.3Xg                                                 ",
"    2.U.Y.Y.K.N.=.y W W q e t ` _ 8 9 K o     $.*.%.%.#.#.| i.l.z.z.X.#.0.u.4Xg                                                 ",
"    @.K.K.J.c.N.*.t ! ~ q 0 t _ ] $           > s h M V V A y.l.z.[...%.q.q.6Xn                                                 ",
"    o.K.K.J.q.5.%.r W ! q 0 / ] [ 2                     . O f &.7.V.=.*.w.0.0Xn                                                 ",
"    S H.U._.+XI.A.G ' L U E r t _ #                         >  .#.%.5.0.0.t.0XJ                                                 ",
"    B K.U..X,X>X&X$.N.N.&X=X3 X X                           > %.%.*.5.5.5.0.tXH                                                 ",
"    k K.J..X4X3X;X>.N.j.&X=X3                               = Z | #.*.5.5.5.yXx                                                 ",
"    k J.J.U.5X4X3X:.N.j.&X;Xs                                 . O @ & a b A c X                                                 ",
"    3 K.J.c.v.v.F.N.N.j.&X>Xk                                                                                                   ",
"    3 $XM.v.c.j.h.N.h.j..X,XB                                                                                                   ",
"    - Y.J.c.j.N.N.r.N.N.J.,X<.                                                                                                  ",
"        @ * 3 l M Z $.e.n.R.%                                                                                                   ",
"                      . O                                                                                                       "
};
