/* XPM */
static char *db396408474b4314dfc11b5de2494752[] = {
/* columns rows colors chars-per-pixel */
"64 64 233 2 ",
"   c #110F18",
".  c #272532",
"X  c #322A35",
"o  c #39363C",
"O  c #2D2B33",
"+  c #43383B",
"@  c #393B47",
"#  c #443B44",
"$  c #3E4049",
"%  c #3F4253",
"&  c #44434C",
"*  c #4B444C",
"=  c #494447",
"-  c #54494B",
";  c #444551",
":  c #4D4B53",
">  c #4B4956",
",  c #534C54",
"<  c #594E55",
"1  c #524C59",
"2  c #594F58",
"3  c #4E515B",
"4  c #545255",
"5  c #5C5255",
"6  c #55535C",
"7  c #5A545C",
"8  c #5B595E",
"9  c #65595A",
"0  c #6B615F",
"q  c #70615E",
"w  c #4F5363",
"e  c #5B5662",
"r  c #5D5B64",
"t  c #5C5D6A",
"y  c #555864",
"u  c #635C64",
"i  c #6A5F64",
"p  c #635D6A",
"a  c #6A5F69",
"s  c #615762",
"d  c #5E626D",
"f  c #5F6065",
"g  c #656165",
"h  c #6D6265",
"j  c #64636C",
"k  c #6B646C",
"l  c #6C696D",
"z  c #73656B",
"x  c #746B6D",
"c  c #7B6C6D",
"v  c #746664",
"b  c #7F736F",
"n  c #646572",
"m  c #6B6573",
"M  c #656973",
"N  c #6C6A74",
"B  c #6B6D7A",
"V  c #65677C",
"C  c #736C73",
"Z  c #7A6D73",
"A  c #736D7A",
"S  c #7B6F7C",
"D  c #726673",
"F  c #6F7075",
"G  c #6C717B",
"H  c #757175",
"J  c #7C7375",
"K  c #74737B",
"L  c #7B747C",
"P  c #7C7A7E",
"I  c #76797F",
"U  c #847474",
"Y  c #82767C",
"T  c #837A7D",
"R  c #8A7C7C",
"E  c #897975",
"W  c #947F7C",
"Q  c #85756F",
"!  c #91837D",
"~  c #6E6E84",
"^  c #757482",
"/  c #7B7583",
"(  c #757983",
")  c #7C7B84",
"_  c #7D7D8A",
"`  c #76778A",
"'  c #7B7E93",
"]  c #6E7184",
"[  c #837B84",
"{  c #8A7D84",
"}  c #837D8A",
"|  c #8B7F8A",
" . c #817782",
".. c #857E94",
"X. c #7E818C",
"o. c #7E8293",
"O. c #848186",
"+. c #8D8385",
"@. c #84828B",
"#. c #8B848C",
"$. c #8C898E",
"%. c #898889",
"&. c #928384",
"*. c #93858B",
"=. c #948A8C",
"-. c #9A8C8C",
";. c #9A8985",
":. c #9A928E",
">. c #858492",
",. c #8B8592",
"<. c #868A93",
"1. c #8C8B94",
"2. c #8D8C9A",
"3. c #84889A",
"4. c #928692",
"5. c #938C93",
"6. c #9A8D92",
"7. c #938D9B",
"8. c #9B8E99",
"9. c #958798",
"0. c #8E929B",
"q. c #8E9095",
"w. c #959295",
"e. c #9C9293",
"r. c #94939B",
"t. c #9B949C",
"y. c #9C999D",
"u. c #999A9C",
"i. c #A4948B",
"p. c #A39494",
"a. c #A3969B",
"s. c #A49A9C",
"d. c #AB9C9C",
"f. c #A79897",
"g. c #A5918F",
"h. c #A7A09D",
"j. c #B5A39C",
"k. c #8D8DA1",
"l. c #878CA2",
"z. c #8D93A4",
"x. c #9594A2",
"c. c #9B96A2",
"v. c #9699A3",
"b. c #9C9BA4",
"n. c #9696AA",
"m. c #9C9BAA",
"M. c #969CA9",
"N. c #9C9EB1",
"B. c #908DA2",
"V. c #A297A2",
"C. c #A39CA4",
"Z. c #AB9DA4",
"A. c #A29DAA",
"S. c #AA9DA9",
"D. c #A29FB4",
"F. c #9EA1AA",
"G. c #9EA2B3",
"H. c #A4A2A4",
"J. c #ACA2A4",
"K. c #A4A2AC",
"L. c #ABA4AB",
"P. c #ACAAAC",
"I. c #A9A9A9",
"U. c #B2A4A4",
"Y. c #B1A6AB",
"T. c #B3ABAC",
"R. c #BBACAC",
"E. c #B9A9A3",
"W. c #BBB1AE",
"Q. c #B7B1AC",
"!. c #A4A4B2",
"~. c #ABA5B2",
"^. c #A6A9B3",
"/. c #ACAAB3",
"(. c #A3A5B8",
"). c #ADACBA",
"_. c #A7A8BA",
"`. c #B2ACB3",
"'. c #BAADB2",
"]. c #B2AEB9",
"[. c #B7AAB5",
"{. c #ADB1BB",
"}. c #ACB1B6",
"|. c #B4B2B4",
" X c #BCB3B4",
".X c #B4B3BC",
"XX c #BBB4BC",
"oX c #BDB9BD",
"OX c #B8B9B9",
"+X c #C4AEA9",
"@X c #C6B3AC",
"#X c #C2B3B3",
"$X c #C2B6BB",
"%X c #C4BBBC",
"&X c #C9BBBB",
"*X c #CBBAB4",
"=X c #D0B9B4",
"-X c #CAC1BB",
";X c #D0C6BD",
":X c #B5B4C3",
">X c #BBB6C1",
",X c #BCBAC3",
"<X c #B9BACA",
"1X c #ADAFC1",
"2X c #C2BCC4",
"3X c #CABEC3",
"4X c #C2BECA",
"5X c #C0B2C3",
"6X c #BFC2C4",
"7X c #BCC1D5",
"8X c #C4C1C5",
"9X c #CBC3C3",
"0X c #C5C3CB",
"qX c #CAC4CB",
"wX c #CCC9CD",
"eX c #C8C9CB",
"rX c #D3C5C4",
"tX c #D3CBCB",
"yX c #D5C8C7",
"uX c #CAC6D2",
"iX c #CDCBD4",
"pX c #C7C6D5",
"aX c #D3CCD4",
"sX c #D5CED7",
"dX c #D4D1D5",
"fX c #D4D4DB",
"gX c #DAD2D9",
"hX c #DBD4D6",
"jX c #D2D2D1",
"kX c #E7D9D9",
"lX c #DAD8E3",
"zX c #DDE1EA",
"xX c #E6E8F2",
/* pixels */
"' ' V z.G.{.}.F.X.I w.1.b.x.m.A.:X).^.pX0Xm.K K `.L.C.].uXuXpXiXfXfXiX{.<Xk...n.).4X4X<X^.,XxXzXxXiXm.A > 8.3XV.| 9.7.c._.D.n.<X",
"l.3.G.(.:X6X0.u.u.F H 1.2.A.A.~.!.b.<X0X,X^.) } `.,X,X/..XuXsX0XfXiXlX{.<X<XB.N.m.].<X].0X>XfXxXlX7Xx.m p | Y.S.[ 9.| A.1X:XpX<X",
"G.o.G.G.{.1X0.F.v.I X.P } c.A./ m.M.<X:XK.K.2._ ].XX.X/..XA..XfXfXeXlX6X)._.2.N.7.@.K.|.0X,XiXiXiXpXm.p / 8.V.t.V. .A.:X(.1X1X1X",
"o.o.G.G.<X{.^.F.0.N P X.@.) t.2.b.!.].^.m.,.$.C [ XX,Xr.^.b.K.2X6XfXpXF...2.,.A b.t.,XwX}..X0XiX4X:X7.C  .A z #.| } V.n.B.(.(.' ",
"` z.(.(.1XG.G.` ^ t 4 _ ) P K @.` b.b.b.b.)  .C A r.c.L A m ,.^.K.|.K.x...x.c. .8 C L H L .. ...<X!.} / } #.D A 1 X # > ' D.D.' ",
"% w o.G.z.o.l.o.n.<.M f = o o : e 1.x.n n } [ / #.5.b.) : p r.c.!.0.x._.A.C.7.`.C.+.h = L 9.S.~._ 2./ @.A.gXaXL.7.1 1 1 ..n.B.n.",
"  . ` (.z.l.o.o.>.3.{.iXH.f H w.r ` ^ 1 1 } ,.) c.5.L.aXc._ 1.).)./.:X~.r.1.#.t.Q.Q. XZ.Y.7.V.D.2.m.B.~.[.].>XA.7.A.p t m ..4Xn.",
". d o.o.] ] ~ w 2.>.v.fXOX|.Q.h.@.G > N N N #.K C 1.t.>Xb.%./ K.^.^.r.c.7.H O.w.u.-X X#XXX[ / ~.A.~.c./.aX4XqXt.c.>XB m # ~ <X..",
"> M d (.n.` V ~ ..N.!.,X|.P.8Xy.@.` N H A 2.S.P #.C.5.^.b.8.1.r.7.t.2.A.A.7.w.J.I.-XeXQ.uXS.D A.~.%.!..X>X6X0X0X].5X} @ > / V.B.",
"d ] t _.n.k.M.x.n.).^.XX|./.8XI.b._ ^ 2.`.|.) C C.L.L.L.L.r._ b.t.1.r.L.].XXt.h.tX;X-X}.XXS./ 9.~.L.fXsXpXdXlXfX0X].x.p X ~ B.D ",
"<.d M o.^ n.n._.:X:X:XlXiXu.u.P.A.r.~.].K.>X[.L.XX`.XXC.t.} r O.XX/.Y.XX`.`.L./.OXeXoXH.2X>X .,.uX~.,XiX6XOXpXiXpX/.} e . m m p ",
"k.( d k.2.n._.{.~.1X].0X0X}.F.u.m.c.r..X0X>XL.oXqX2XqX`.t.#.u l P. XJ.0XXX/.eXoX|.dX8XC.>X4X9.>.~.`.2XpXeXpXlX0X:X).^ m # p e } ",
"o.( y n.).F.b.x.0.^..X/.r.1.0.b.` / 1.^.uX2X`.2XqX,X[.L.) } L C e.Q.I.wXOX.XgXfXeX0XoXu.2.b.B.4./ C.8XiXiX6X0X:X1X~.....p 1 D  .",
"M n t <.^.{.!.|.b.2.r.^.).x.' @.,.t ) } 5.t.C.y.a.L.t.L.H k u * 0 x b ! [ 1.>.>.@._ } _ ^ ^ / >. . .L H $.X.( X...| ....~ a | ~ ",
"3 n w B I I F $ : 8 } 2.2.x.<.~ 2.@.,.1.,.X * C S T l K k C t.P.f.Q - = 9 ,.@.>.^ ` @.r.!.b.7.D./.[.r.u @.F.2.1.} } s 1 s  .5X5X",
"d V 2.b.}.eXF   : 6 @.2.,.m.D._.b.x.1.2X4X6 S.C L | L K L C r.qXtXhXQ.I.C.!.).:XK.2.b.!.m.^.1XA..XhXlX`.>XK._ n.} >... .a  ...S.",
"m n j N /.8Xu.. K P K L 2.A.D.m.%.) b.I.,X} b.} D ~.C.[ 5.) y.%X9X-X9XT.b.b.} ^./.C.4./.:XD.).c.T.iX|.5..X} 2.).c.2.m ^ p w.J.C.",
"/ > j 7.r.1.y.= $.@.I A N !.].2.l O.P.|.^.b.b.O.!.].c.V.K.8.S.2XrXrX9XoXL.1.j C./.L.#.#.S.1X2.K.oX-X XH 5.,.} A.>.9.D ^ / /..X,X",
"N m N ,.b.b..Xl b.L = ) N m 7.c.b.w.,X.X>Xr.r.1.[ ~.`.4X`.Y.[.%XtXhX&X`.u.1.D .X .5.t.K [ } n./.aXhXOX .5.C ) 1.A.~...m } ].,X8X",
"/ <.^ 2.0X/.A.%.L.@.r r L 7.} } 8XI.iXeX6X) 1.A.[ ~.~.`.L.XX2XqXrXyXXXT.w.$.l w.O.w.e.L #.} K.`.0XtXP.5.A.C [ P.>X~.7.} 7.^..XuX",
"<.>.r.!./.K.b.1.u.H r P A.| #.t..X6X0XdX,Xr.b.b.t..XXX2X2XY.S.XXhX-XoX|.8.$.N K Z w.a.=.5.t.N ~.aX3X'.#.t.K 7 y.XXr.m.:X].x.K.0X",
"x.3.^.{.F.!.K.q.b.g [ m L L l @.P.8X8X8X,Xx.K.t.L.4X4X2X2XL.K.tXtXrX3XL.#.y.=.l R &.Y +.e.P.y.2XXXXXL.{ Z.O.g w.OXL..XfX<Xx.(.<X",
"n.<.3.F.m.<.@.1.[ e 4 , k l Z x $.b..XF.u.K 2.r.[ H.L./.S.P.t.s.s.Y.'.5.} 5.{ < 9 9 c R =.L S.t.5.S.5.S R h u h w.2.L 1.>...l...",
"w d M G B ( X.j k H l 7 < o O * g j j l K @.N u 7 P } H # 7 u C { L Y Z T C Z T R Q - + 5 h H #.*.| S.[ T %.%.T.I.w.1 / B.` ` ~ ",
"; d M ( n d B N K N L.oX5.x g w.P.K.@.l j H K K H qXdXqX[  .P t.T.*.T { C J *. XkXyXU.{ W 6.H #.S D K 2 g J =.Q.wXjX@.K ^ m.` ~ ",
"V ] d M B B j n e : K y.t.s.$.h.K ^ _ X.w._ O.H 7.y.y.`.t.=.L =.t.S.5.#.A [ =.+.@XyXyXj.-.V.#.w.9.S [ l P H P :.OXjX%.H / ' D.B.",
"X.( d G G G K ^ e j @.s.y.H.u.y.@.,._ u.r.2.w.b./.oX0XoXC.t.[ 6.s.T.C.L.t.=.C.-.&X3XyXf.*.Y.5.K.#.~.S.[ l Q.|.|.-X2XX.) / p D.B.",
"o.z.M d ` ] N 0.N ) 7./.P.H.e.w.<.,._ b.q.r.|.wX X8XgX[.c.s.1.5.C.H.S.oXP.=.C.Y.#X=X3XU.6.t.} C.,.~.K.t.g H.T.XXdXT.T ) D m ..~ ",
"X.X.j M B ( @.x.G @.b.oX|.F.$.u.H / b.A.^.[ L./.wX2XdXoXZ.t.#.t.y.I.2X8XXXL.`. X#XR.$X'.Z.L.@.r.c.c.K.K.K.[.2X2XqXL.L 7 e / ..k ",
"G <.B j ( _ _ F.0.b..XiXOXy.q./.^ ^ ^.^.:Xy.oX0XwXwXgX2Xw. .P 5.#.t.2X6XXX XT.J.kX*XR.U.Y.2XA.x.K.].XXXX:XqXwX.XqX`.K , u m c.| ",
"X.@.X.X.K } 0.r.K.K.{.,XOX}.q.H.m.2.^.].K.H.`.wX9XwXwX|.t.t.t.*.w.C.oX0XdXqX3XY.R.#X#X'.L.].K.x.c.:X.XiX>XiXuXfXwXXXA u D < 4.t.",
"I G N ( <.m.!.x.2.b.OX^.r.0.F %.,.m A.K.L.r.u./.`.|.L.C.O.O.[ K s.|. XoXtXtXsXs.*.t.a.C.V.~.A.1.1.XX8X<XXX.X/./.).`.k 2 , # 7 Y ",
"0.<.j M ) ) F ) l 1.1.<.@.v.0.<.%.O.b F f 0 l %.} B.9.A.C.w.q.P ! w.! H c ;.C.C.x.)._.G.1XF.0.H.f.=.! 5 u u ,.x.!.!.c.m.,.b.8.[.",
"M >.q.1.b.j 8 l ) g _ %.@.B <.2.q.w.x 0 5 x T P p >...` @.X.O.:..XQ.:.E 9 v =.`.<XN.(.n.o.o.P =.W.i.Q o + o 6 !.m./ ^ p p `.[./.",
"; $ & <.b..XI.r.@.4 k K > y M f 8 ! I P :.I.I.P s D D j ) 5.+.J s.-X;XE.W &.-. .b.>.n.>.M ) [ =.h.! p.Z 7 - & ,.>.7.B t [ L.XXZ.",
"% % M 0.b.v./.b.u.j P ( 3 _ q.( %.F.! ! :.I.Q.%.2 e } @.H l P h.T.W.&X+X! ;.;.L C.x._ v.!.b.5.+.j.-.s.U < u t 2.,.m.m e 8.`.'.V.",
"6 G ( <.{.^.u.u.7.8 K F N O.F.r.u.I.:.h.h.I.Q.w.7 C C k  .w.e. X&X&X;X#X;.g.;.c 4.L.7.c.V.Y.Z.Y d.W.Z.R z D u ,.^ _ A.A ,.>X$X2X",
"d <.X.v.I.}.q.u.w.g l F <.P.}.I.OX6XI.I.u.:.H.H.p } [ N #.'. X XrXyXyXU.E f.f.R { Z.'.S.Y Y.#XY.#X9XY.5.K C A 7.L 1.A.L A.gX3X'.",
"d X.v.F.}.^.^.<.<.H j O.r.wXeXOX6X6XOXOXH.u.y.P.w.P  .S.Y.S.'.$XqXU.'. Xg.6.*.-.Y.6.6.'.a.a.a.+X%X$XY.a. .L } [ S `.C.[ L.%XwX3X",
"G F.F.F.}.}.F.q.%.I P <.w.y.OX}.6X6XQ.}.u.w.e.K.y.C.1.S.3XXXXX5XsXXX'.'.p.a.6.-.U.3XV.&X3XXXY.Y.tXtXZ.L [ *.[ #.[ t.`./.XXsXaXqX",
"G G.F.0.0.I d M X.l 4 u.I.F.}.T.}.6XF.w.$.<.N  .Y $.L.[.2X$XY.S.'.$Xb.t.x C T Y e.J.'.3XgXaX3X5XS.S.#.s Z |  .Y | L.Y.a.L.>X2XC.",
"y y G G I X.X.X.q.I 4 ! H l 0 J P X.1.0.r.b.#.@.P #.6.*.6.V.S.9. .b.5.P.t.5.a.Y v +.6.+.U 8.S.| c.Z.8.a.V. .{ 4.8.a # D z #.s.C.",
"w d 0.o.u.q.F I @.P %.|.f.:.+ = g F u.v.4.,.} [ O.y.J.T a S 4.Y ,.t.r.A.@.L t. XZ.U.;.-   2 ..c.t.C.$X5.| V.{ Z.t.D # i u k L L.",
"M I X.M y 3 O $ o 5 O. XQ.Q.0 v F 8 I F n m 1 7 x T f.:.6.S.Z.D Y u A K u k , Y f.R.U.R # s ^ | c.#.L { 4.4.{ |  .*.| z u * e @.",
"d f y M 3 M d 3 3 P s.J.U.h.E ! 5.H k D D } i  .E.h.j.h.6.f.V.Y Y D D C a *.z E d.+Xj.E 9 q p ~ 7.[ k O.6.Y 4.a.6.Z.Y.{ a e A ^ ",
"M f $ 3 $ f M 4 C w.s.s.R.U.;.=.e. .a D k  .D 6.W.Q.;XW.g.*.6.Y Z Y 9 s < l R d.+X=X+XW E | a ~ N O.w.Y R | Y.#XZ.Z.t.| Z D m / ",
"6 d y f I I %.X.K. X|.U.R.W.;.! p.Z 7 9 a  .T { yX-X-Xj.;.&.*.c { { z  .*.Y f.j.j.+X+Xi.g.E.| / e k C [ Z.*.=XZ.+X[.8.{ 9.[ D 7.",
"M 6 F I X.I H.%.u.T.oX#XU.U.E ! =.x C Z z +.J.j.W.-X;XJ.;.&.*.z g.6.R Y C.6.#X#X=XE.E.! | | |  .j 5 T { V.8.5XkX5XS.V.} 9.,.9.8.",
"f d d I I %.h.u.F.I.|.|.u.I.x %.t.) H U *.T.h.%X-XdXeX|.5.6.s.;.g.Z.V.V.R.[.5X=X;X-XW.H | ~._ ,.J 9 p.Z.Y.Z.$XaX4X[.,.A Z.[.Z.V.",
"% $ : f u.q.I.I.I.h.Q.h.P %.%.g ) K l h ! j.T.|.|.>XK.v.H k c E 8.Z.Y.S.3X$X$X3Xf.u.$.l r A ^ e v 9 c Z.XX>X`.].).m.S k a S V.'.",
"F.o.M I %.F 8 O.u.u.w.u.L.P.8X.Xw.%.Y U x 0 ! =.$.@.G <.C.a.{ U U | E.g.8.4.| R.s.T. Xh.t.5.A a z E - # 9 2 C.m.A.:XuX~.V.T V.z ",
"F <.F.}.q.f O l I u.q.u.u.} %.K.t.5.Q.$Xh.q h J P r.r.2.,.*.R ;.+XyX3Xf.< z z | +.&.f.f.C.L.t.XXhXE.| + X O A >XD.,.4.[ 4.D 8.Y ",
"@ 6 q.u.q.G y I H 8 N ( l N C k u i s.f.d.:.f.J.x X.l g C [ h v g.j.=X+XU | U z +.v - Z i 5 *.t.Z.p.a.J u Z m 5.7.^ p } } 4.#.S.",
"I ( X.I I <.I I q.: X.w.r.@._ u x J T.f.d.:.=.e.4 0 g L s.Y.6.g.j.;.j.j.U { U U =.x 9 h i 2 z | V.#X6.L l e / } >.7.>.8.#.5.{ L.",
"X.F.u.^.u.u.M I $.6 8 6 e : u 5.+.+.f.=.;.R +.f.h g g T J.XXs.U.d.i.f.g.Y z Z { XXL.=.x Y [ D 5.8.6.a. .4.* : c. .} ,.`./.c.c.5X",
"0.^.u.u.}.F.M F P M ; * e k g $.s.f.f.d.R.p.e.e.c h h T Z.3XU.U.j.*XE.U.{ Y D | [.XXZ.+.{ 5.6.{ 8.5X5.K 1.p * } } V.9.4XXXiX5X~.",
"u.}.I.0.v.u.X.G N I H > # H L #.&.f.U.Y.s.6.e.h.E | E { +X5X3X3X-XE. XQ.#.L } 9.~.S.Y.Y.[.c.V.C.~./.C.| S m # | } A.4.4XsXsX4X[.",
"%.}.{.6Xv.<.y 3 : t N * u k J Z.6.U. Xp.J.Z Y -.{ g.g.j.+X+X#X3XQ.-X9XqX[ ,.9.} ~.4X).S.~.[.A.[.XX~.5.e s S ,  .S.t.V.].lXlXsXlX",
"F 0.K.@.f 3 @ o & @ 4 5 x c J R a.#Xa.#.} O.k C W { | +X$X$X3X+X-Xh.u.u.m e _ A.~.>X.XOXc.C.V.].m.m a e , < # , |  .p.#.[.aX4X:X",
"o 4 O.1.M.}.!.x.) ( ) C - 5 5 9 &.C.S.t./.`.H.=.W { | | E E U.Z.H.F.I.b.~.m.>.9.C.%.H N m [ m.~.:X.X2X4XS.8.V. .{ D s D m ..9.A.",
"o 4 I I.<.) j _ D r.H.s.p.;.v q R T 5.r.2._ } S ;.R.=X+XW Q g.| t.r.7.9.8.4X8.#.oXT.x * { S.S.V.A.A.7.c.8.a Y +XZ.a.s [ D D S A ",
"8 4 : H ) ) G } I 1.`.h.-.Q Q Q U D A ,.t N j 7 U U.=X=X| W g.U L = - , @ 7 2 L OXrXs.! 4.V.| ..j m A u a 9 q 6.{ g.z -.V. .| 1 ",
"5 4 : f ) A >.,.b.5.J.Y.j.i.i.v Y L >.( n t t # Y U.=X+XW Q Z.*.{ K u o o # i ;.f. XR.;.-.*.4.S.c.j D u s z | #Xf.| z S 8.s s # ",
"8 g = I ` m B @.c.L.I.U.f.i.! E C A M M % > r S z g.+X@X;.Q f. .Y Y.i 2 C x 7 ! R W.U.c #XV.*.4./ ^ A u Z U { g.;.E z - D a D m "
};
