/* XPM */
static char *_61a6f7fc2334ed8d4638b6899c300ca[] = {
/* columns rows colors chars-per-pixel */
"64 64 108 2 ",
"   c #150600",
".  c #1D0C04",
"X  c #1D100A",
"o  c #240D05",
"O  c #2B1207",
"+  c #25130B",
"@  c #2C150C",
"#  c #2D180E",
"$  c #32160B",
"%  c #34190E",
"&  c #3D1B0E",
"*  c #291710",
"=  c #251812",
"-  c #2D1A12",
";  c #2B1E18",
":  c #321611",
">  c #351C13",
",  c #3A1E13",
"<  c #351D18",
"1  c #3A1E19",
"2  c #2F231D",
"3  c #362116",
"4  c #3C2116",
"5  c #35221A",
"6  c #3C231A",
"7  c #3E291D",
"8  c #3C2620",
"9  c #332822",
"0  c #3D2921",
"q  c #401C0E",
"w  c #411E12",
"e  c #432315",
"r  c #492416",
"t  c #472816",
"y  c #482917",
"u  c #43251B",
"i  c #49261A",
"p  c #45291E",
"a  c #4A2B1D",
"s  c #522E1E",
"d  c #55311F",
"f  c #422620",
"g  c #452B22",
"h  c #4A2D22",
"j  c #432F28",
"k  c #4B2E29",
"l  c #512E22",
"z  c #473126",
"x  c #4D3125",
"c  c #473028",
"v  c #4D332A",
"b  c #4C382F",
"n  c #533224",
"m  c #5B3525",
"M  c #5E3927",
"N  c #53352A",
"B  c #59372A",
"V  c #55392D",
"C  c #5B3A2C",
"Z  c #4F3330",
"A  c #4D3930",
"S  c #523733",
"D  c #553B32",
"F  c #5B3C32",
"G  c #623B27",
"H  c #623D2D",
"J  c #683F2D",
"K  c #613E33",
"L  c #693F31",
"P  c #5D4136",
"I  c #5C423A",
"U  c #65412F",
"Y  c #69422F",
"T  c #73462D",
"R  c #75482E",
"E  c #644134",
"W  c #6A4434",
"Q  c #6E4935",
"!  c #644439",
"~  c #6A463A",
"^  c #664A3F",
"/  c #6C493C",
"(  c #714535",
")  c #734A35",
"_  c #7A4D33",
"`  c #724638",
"'  c #734C3C",
"]  c #794F3B",
"[  c #7F5236",
"{  c #75513F",
"}  c #7B523D",
"|  c #6D4A40",
" . c #724D42",
".. c #794F43",
"X. c #755143",
"o. c #7B5444",
"O. c #7C5848",
"+. c #805336",
"@. c #82553D",
"#. c #85583B",
"$. c #825643",
"%. c #855943",
"&. c #895B45",
"*. c #855C4B",
"=. c #8A5E4C",
"-. c #8D6043",
";. c #8C614E",
":. c #8A6050",
/* pixels */
"h h 4 % : < g 4 x a & e y p 3 # O 7 x 3 x p % , 4 e 3 % # 3 y % n y 3 t y , 4 & > h 1 @ > @ # 6 u t , , g 7 o @ 5 7 < f k f u f ",
"t p 6 < > 7 g % x a e q s a p 4 # 7 y > z p , 4 4 4 , % % 4 7 3 P z 3 7 p , % $ > h , @ > @ @ 6 4 e , 1 g 7 @ : 6 6 < 6 f u f k ",
"p a 4 % % 5 7 , n n e e a g x g # 3 p > z t 3 4 4 , , % % 3 4 3 n 7 3 y u & % $ , p , , 1 @ @ 5 4 u e , p 5 o @ < 8 > < , $ w h ",
"x p 4 4 < 5 f , x n e e a p p p % 3 7 > a z 4 p 4 , % % % 3 4 3 P 7 t y a e & % u p < 6 8 - @ 6 e y e , p 3 o @ > 6 < 6 1 : 1 u ",
"a p u z z 7 7 & x n i y y 4 4 , > , 4 # g x u p 4 & % % % 3 4 3 V a p a h u % , p u < 6 6 # > 7 6 t u , g 6 O 3 : 5 1 f f u i h ",
"a p 4 g g 6 7 % a n i t y 4 , % 3 % 4 > g g u u 4 4 4 % % 6 7 3 V p a p p u & $ u u 1 4 4 @ , 7 u p t 4 p 6 O # < 6 1 u h f h h ",
"x g 3 3 < 5 f , p n i t t 4 6 4 % % 6 4 g p u u 4 6 6 4 % 4 p > V p a a p u $ , p t > , > # 3 7 f g u , p 6 o @ 6 p 1 1 w f h i ",
"a a t 3 < f g @ a x t e t p p h 3 % u 4 h h u u 4 t e % & p p > N p a p i p & , h p < , % @ 5 4 i f e , h u @ % 3 7 1 w f i l l ",
"a p 6 > > f 7 $ h n t e e 4 n 6 % % 6 % p a p a 6 p , , 4 4 p , V a a z a i , e g h , $ % # > 7 p n u u x 4 O # 6 7 6 4 p u w m ",
"a p u : : 7 p $ x n t t e 4 x 4 3 % 4 3 p z p g p t , 4 p p 7 , N y y x a i , e h h e $ % # > p g x 6 p D p # % 5 u 4 w i u w n ",
"a z p $ - 7 7 @ a n y e e , p , , , 6 , p p p a u u , , 4 p p 3 P y x x a i 4 y h h 4 $ % $ > g x a 6 a N 6 % : 4 4 , 1 h i i n ",
"p x h @ - 6 p @ a n i t e 4 4 > , , p 4 a g p a y u % , p p p % P y y d h p e p h h u $ % @ % p g a p p 4 $ 4 5 e 6 , e l i w n ",
"a g a # : 5 g $ a n a t t 4 4 1 , , p , g h i h u t > 1 u p p & P 7 d x x y 6 s h h 4 % % $ % p p h y 5 % % f 7 f w w i l w i m ",
"a p x % 1 5 f $ p n a t a u , 6 , , p 4 h h f h 6 u & , p p p 3 n t x d x y t d h l u & > % 3 x h x u , 4 g v 7 f w 1 f l l r l ",
"a p g % 6 3 p $ h n d t a u , 6 , , g u h h g h w u , , 6 p p , U p d x d a y x a h u , > % 4 x h h 4 4 p x v 6 f 7 w f m s r m ",
"x p x % u < 6 @ h B n i g t % u 1 6 h w h i f k w u , , e p p 4 x y x n x y y x i l u $ & % 1 x h h w 4 6 u g p f u w i B l w l ",
"x N x O p u f @ a V a a y p , , 4 u h u h h p g u 6 4 4 e p p % C a N h n a n s a a a , 6 4 6 h h h p , h u , u p p , l B a i m ",
"x x h $ p 7 p $ a x x y y 7 % , 4 4 g 6 h h p h p u , 4 6 p h % V h N N n i s a s y p % 6 , u N N n g w h p p g g i w i N i i n ",
"x x z O f w g $ p P x a t t % 1 , 4 a e h h h h p p 4 4 u p x , N h N n N a s a a t t 4 e & u x B N s e l i u y h h w h m i s m ",
"x d t O f 1 h $ t U x a 7 p , 4 u 4 g 4 h x p h g y , 4 u p x , N g n N n a l l u t p e p % u g N N l e N g u 4 h l r l H s s G ",
"l N u $ k 1 h $ p B x a u p 1 w 6 u a 4 x g g h p p 6 6 u g x 4 n i N n N a n l y i u e f $ u f B C n a B l i e i l r d H n m G ",
"x N w , k 1 l $ y V x a p p 1 u y 6 h 6 h x h g x h e u p x n 4 N p l N n i l N p h t 4 u : h h C J M y n l a i i l r l M l m J ",
"a N u 1 Z 1 k $ p V n h p p 1 7 u u h 4 x x x x h g u u p x v 4 N a l N N i l m t l u 1 w 1 k l N H C r n l s i l m r l G d m J ",
"s N w w N & h $ h C n h t p 1 u p 6 p 6 x x h x h g u p p h x 4 V g n n l u l N , l u , f , Z f n L U s M B n i B G s s G d m J ",
"d m p 4 F f u : f C V a a x 1 f 6 p g e v x x h x x 4 x p x x 4 D h n N n t i F w Z f 1 f 1 k f s H W s M m s e l m s r G m G L ",
"n n y t F f f & h C N h p k 1 f u g g 4 N x x x g x 4 x p g x u F h n n n t i B w N l w w : 1 f s H J s M n s e l m r d L m G L ",
"d n y u K w f & a P B g u v 5 f u g p 4 N x x x h x 4 h p x x u F h n B n a i B w C k w < : : f l E L a B m a i l l w d L m G L ",
"d n i p F f f & g V V x u v f f u a p , v N v x h x 6 x g x N p F h n B N g i B k K f 1 : 1 f Z l W L a C m l s l r q s L G G @.",
"d n y x C a f w h P n z 7 z 8 u f g p , n v v x h x u x p x V p F x n C N l i B S ! k 1 < f k k n / ~ s E C n N n n e m _ J H ] ",
"d n y x V g f , h n P p 3 x f 6 u p p , N x x x h x 6 x g x V a P n N C B a a B K ^ k w 8 f f f n ' ' n E C n B K K n K ..L J Q ",
"d d y n N h h & x n P z 4 z 7 6 1 p p , v x v x g x 6 x h x D x ! x N C N l a C ! | Z w f k k f n X./ n E C n C F ~ C L ' W H L ",
"n n a P N h h & x P x y 4 P g 4 1 a g u N x x N h x u x a x D x ! n n B B h a B K ! k : f k S v l X./ n E C h B B ~ B n W W U U ",
"h n i V l v h , x F D x h x h 1 , x a 4 N v h h g a g v g N D N E N N M N s a V I I Z 1 Z Z Z S Z ..~ B E m m C C ' K w K | ` $.",
"n n a C N l l , x V V x h x g , 6 x x 6 V v x x l h h n h l F h ! m N N N x h P ! ! k : k f Z S l ..` B W m C H K  .L w L L ( ..",
"l n i F V h h u n D V x h x a 4 y v x 6 N v x v l k h l a N F h ! B C U V n h P K I k 1 k k Z F k | ~ B W H H H K | L l Q Y Y ) ",
"l h u F V g h u n V V h g x g 4 g N x u N x x x n h h h h N K N ! m U C V l h F K K Z f k k Z K Z L ` B ' U E C ~ | K G ' Y Y ) ",
"h n u D N g h p x V N g a x h 6 x N x p v x x x h g a l n S ! V K B B F N h l K S K k r B k k F B K | G ` E W H | | L L $.Q ) ) ",
"h N a C h a l i h V V h g x x u x v v p N x v x N p p N h N D n K k B F B n k K ! K Z w B k B K F K  .B ' W W H ~  .L ~ *.` } ) ",
"h N g V g g x p g V V g g k v h x x x g N h v h N p u h n h V N ! B B K F N n K | ! B f B B N K K K  .n / E / U | | L Q $.) @.) ",
"g N p n t p x p g N D h g k v j h h x p v h N h N u w V N h V N | F S K K l Z F ! K B f K B N K B B ..N ' W ' U | ..W ' *.{ &.[ ",
"h l h h h p x p p F V k g g N h p h N g x g x x N w h N N N F h | F Z K K k l F | | N w F n B S P C ~ U / X.Q Q L ..L ..*.$.J +.",
"h l h h a g x 6 g F N g f f v j g h V h x x x h N 6 N N N N ! h ~ F B K K l l K K K F w K N B B F U ^ P ' ' W W  .....L *.$.L +.",
"k x h g p g x , g D v g p p h h h g V x x x x g N u N C V V K h ~ K B L K h h K ! K S u F V V B F E ~ U X.Q H E | ..L ` =.#.+.+.",
"x N x p p h n 4 g D v p 7 g g g h x V g p h x x N t V D V V ! h ! K K L K l l K ! K N , V k N D F ~ E C X.{ J W ` $.L ..;.#.J +.",
"h V x g u g v 6 u v v 6 7 f f h g x V p g x x p n u D D V V P s L K K K H l h K ! F x , b v N V F ~ ! C ..' L E ` $.` ] =.&.+.+.",
"h N h a u u v u 6 g k 1 1 7 6 g g x F p p x x h v y V C N N ! a L K B G H l l K | F x 3 D v b v B ! E C ..| ( L ....` ` &.#.+.-.",
"h x p p 6 u h 7 6 u g , @ 1 < g h x D p p x x p x u V B n N P a L K G K C n l K ! D z % D b b b D E K U ..L L G L ` L ` &.@.R #.",
"h g 1 u u u g 6 7 f j : O : < x h v F p g x x h x p V N x N P a | K G G H n m K | D p @ A b b N F E F E ..L ..G s L L ] &.@.R #.",
"p g t u : h 1 o f 8 * : @ 1 f k h n V a h h g x x p C x x C P a W U H H C m m U F ~ n > I A D Z V ! | K | | ^ l w W W W :.) _ $.",
"p p u g 1 f 1 O 0 - X = * f f h x n D p h h h g z p D x x V C a ! H C H H m m U K ! n $ F A D S F ~ ! N ! | / N h ' W Q :.' ` ] ",
"g u , p g f < < 8 = o - > f k k h n V y g h p h h p V x x V P s E C M C H m m M K ~ n > D S D D K ~ F i F | ~ F K o.W W =.] _ ' ",
"p p , u k k 1 f 8 = + < < 8 f n x x V 4 h g p g g 7 V x x z U x E C C C C m n m C ~ S 6 F S S D F / K w E  .~ K W o.K L =.] ] ] ",
"p p u u k h f 8 0 ; @ ; * < f v a x V p g g f g p 6 N x x N P a U C C U C n d N C / v u D D Z D F / E w F X.~ K ~ X.W L $.] $.$.",
"p 7 p 6 f f 8 1 j 5 X + o 1 g h a x V p p p p p u 6 x h x b P N P B C C n n a n F | x 4 D v v D ! / E q B X./ L K ' J Y $...&.&.",
"g 7 g 6 f u f < f 5 @ @ o 6 g h h x B u p p p 7 7 < x g a v P B U C B C V n n N F | h u D D v D E W ~ q h  ./ K Q  .J Y $.) $.&.",
"0 3 7 7 k 1 k 1 6 0 5 < + 1 f k x z N 7 p p 7 7 5 , x p g n V N E C N V C n n V D | h p I F v D K E ~ w h  .Q B `  .W Y ..) $.$.",
"0 5 g < u 1 g 1 6 0 0 7 * # 7 x a z V 4 p 7 5 6 5 3 z 7 z z P N P x n V n V P x N ^ N : I I I V C E ! w a / E F W X.W m ;.] Y %.",
"; 0 0 6 > 1 g 6 g 7 0 7 # # 6 f y x V 3 p 7 3 7 3 3 p 7 a a P n E a n C N N D x D ^ v % D v V n C ~ E w u W F C L X.Q H ;.Y ) } ",
"+ 0 9 8 : > h 5 z 7 7 5 : - 5 p 4 x N 4 z 4 - 7 5 4 z 7 z z P z U a x P V v V x D I z , P N V V C ! E , u E C V P X.W U o.G } } ",
"  9 < k 1 > g 4 z 5 3 5 < > 1 p 3 x b 3 z 3 # 6 5 7 0 7 y x P z V p a D N h h z c P v 1 I N b x F ! K , u F V C !  .E C { m } ) ",
"X 5 = Z u > g < y 3 # 3 3 > 5 5 , z x 3 z 3 + 5 3 5 0 5 p z P a C p p N v g g v j I v # V x a 6 D P F 4 6 V x N ^ ^ C C Q m } Q ",
"5 2 = 0 6 > f 1 z 3 5 3 4 3 5 4 3 z z 4 z 3 # 7 3 3 7 3 7 z P z V p x N x f f b c I z O v x x p F P V 4 7 P N V ! I U U O.U o.Q ",
"9 ; * < 5 1 4 3 7 7 7 7 3 3 6 1 7 p x 4 0 5 # 7 2 # 6 , t z P h N a a N x p f c c I z # V z v x D P D 4 g I N N P ! P U O.Q { { ",
"2 = - * 5 3 t % 4 3 4 5 # , < , 4 7 z 7 p 3 3 5 # # > > 7 7 z z x a x b v 0 0 z c I z , D p y p V D v 3 p P v b P P ! N O.Q { o."
};
